<?xml version="1.0" encoding="utf-8"?>
<!-- Generator: Adobe Illustrator 23.0.6, SVG Export Plug-In . SVG Version: 6.00 Build 0)  -->
<svg version="1.1" id="Capa_1" xmlns="http://www.w3.org/2000/svg" xmlns:xlink="http://www.w3.org/1999/xlink" x="0px" y="0px"
	 viewBox="0 0 35 35" style="enable-background:new 0 0 35 35;" xml:space="preserve">
<style type="text/css">
	.st0{fill:#EC1C24;}
</style>
<g>
	<path class="st0" d="M34.1,12.4h-2.6c-0.2,0-0.4,0.1-0.5,0.2l-0.6,0.5c-0.9-2.1-2.2-4.3-4-6.4c-1-1.2-2.4-1.9-3.9-1.9H12.2
		c-1.5,0-3,0.7-3.9,1.9c-1.8,2.3-3.1,4.3-4,6.4l-0.5-0.5c-0.1-0.1-0.3-0.2-0.5-0.2H0.6c-0.4,0-0.8,0.3-0.8,0.8v1.8
		c0,0.4,0.3,0.7,0.7,0.8l2.6,0.2c-0.4,1.2-0.7,2.9-0.7,5.4c0,2.1,0.4,3.5,1.2,4.4v4.1c0,0.3,0.3,0.6,0.6,0.6h2.9
		c0.3,0,0.6-0.3,0.6-0.6v-2.5h19v2.5c0,0.3,0.3,0.6,0.6,0.6h2.9c0.3,0,0.6-0.3,0.6-0.6v-4.1c0.7-0.9,1.2-2.3,1.2-4.4
		c0-2.5-0.3-4.2-0.7-5.4l2.6-0.2c0.4,0,0.7-0.4,0.7-0.8v-1.8C34.8,12.7,34.5,12.4,34.1,12.4z M10.4,8.4c0.4-0.5,1.1-0.8,1.8-0.8
		h10.3c0.7,0,1.3,0.3,1.8,0.8c1.2,1.5,2.2,3,3,4.5H7.4C8.1,11.5,9.1,10,10.4,8.4z M8.3,24c-1.5,0-2.6-0.5-2.6-1.6
		c0-1.2,0.4-2.1,1.9-2.1s3.4,0.9,3.4,2.1S9.7,24,8.3,24z M20.1,23.8h-5.5c-0.8,0-1.5-0.7-1.5-1.5c0-0.2,0.2-0.4,0.4-0.4h7.7
		c0.2,0,0.4,0.2,0.4,0.4C21.6,23.1,20.9,23.8,20.1,23.8z M26.4,24c-1.5,0-2.6-0.5-2.6-1.6c0-1.2,1.9-2.1,3.4-2.1
		c1.5,0,1.9,0.9,1.9,2.1S27.9,24,26.4,24z"/>
</g>
</svg>
