<?xml version="1.0" encoding="UTF-8"?>
<svg width="22px" height="561px" viewBox="0 0 22 561" version="1.1" xmlns="http://www.w3.org/2000/svg" xmlns:xlink="http://www.w3.org/1999/xlink">
    <!-- Generator: Sketch 51.3 (57544) - http://www.bohemiancoding.com/sketch -->
    <title>Group 7</title>
    <desc>Created with Sketch.</desc>
    <defs></defs>
    <g id="saostar-PC---special" stroke="none" stroke-width="1" fill="none" fill-rule="evenodd">
        <g id="saostar-pc-special" transform="translate(-271.000000, -410.000000)">
            <g id="Group-7" transform="translate(271.000000, 410.000000)">
                <rect id="Rectangle-21-Copy-3" fill="#ED1C24" transform="translate(11.000000, 119.500000) scale(-1, 1) translate(-11.000000, -119.500000) " x="10" y="0" width="2" height="239"></rect>
                <path d="M-135.404998,424.794998 L-135.404998,403.794998 L-125.054998,403.794998 L-125.054998,406.794998 L-132.074998,406.794998 L-132.074998,412.884998 L-125.924998,412.884998 L-125.924998,415.854998 L-132.074998,415.854998 L-132.074998,424.794998 L-135.404998,424.794998 Z M-107.144999,406.554998 C-105.074999,404.454998 -102.494999,403.404998 -99.3749987,403.404998 C-96.2549987,403.404998 -93.6749987,404.454998 -91.6349987,406.554998 C-89.5949987,408.624998 -88.5749987,411.204998 -88.5749987,414.294998 C-88.5749987,417.384998 -89.5949987,419.994998 -91.6349987,422.064998 C-93.6749987,424.134998 -96.2549987,425.184998 -99.4049987,425.184998 C-102.524999,425.184998 -105.104999,424.134998 -107.144999,422.064998 C-109.184999,419.994998 -110.204999,417.414998 -110.204999,414.294998 C-110.204999,411.204998 -109.184999,408.624998 -107.144999,406.554998 Z M-104.624999,419.874998 C-103.244999,421.344998 -101.504999,422.064998 -99.3749987,422.064998 C-97.2749987,422.064998 -95.5349987,421.344998 -94.1249987,419.874998 C-92.7149987,418.404998 -92.0249987,416.544998 -92.0249987,414.294998 C-92.0249987,412.074998 -92.7149987,410.214998 -94.1249987,408.744998 C-95.5349987,407.274998 -97.2749987,406.524998 -99.3749987,406.524998 C-101.504999,406.524998 -103.244999,407.274998 -104.624999,408.744998 C-106.034999,410.214998 -106.724999,412.074998 -106.724999,414.294998 C-106.724999,416.544998 -106.034999,418.404998 -104.624999,419.874998 Z M-57.164999,420.084998 L-56.174999,422.994998 C-56.504999,423.234998 -56.834999,423.474998 -57.194999,423.684998 C-57.644999,423.954998 -58.154999,424.194998 -58.664999,424.404998 C-59.954999,424.914998 -61.334999,425.184998 -62.774999,425.184998 C-65.924999,425.184998 -68.534999,424.134998 -70.544999,422.064998 C-72.554999,419.994998 -73.574999,417.414998 -73.574999,414.294998 C-73.574999,411.204998 -72.554999,408.594998 -70.484999,406.524998 C-68.444999,404.454998 -65.894999,403.404998 -62.804999,403.404998 C-61.454999,403.404998 -60.194999,403.614998 -58.964999,404.064998 C-58.034999,404.424998 -57.194999,404.874998 -56.444999,405.444998 L-57.434999,408.384998 C-57.704999,408.174998 -57.974999,407.994998 -58.304999,407.814998 C-58.694999,407.574998 -59.084999,407.364998 -59.474999,407.184998 C-60.554999,406.734998 -61.634999,406.524998 -62.714999,406.524998 C-64.874999,406.524998 -66.644999,407.274998 -68.054999,408.774998 C-69.434999,410.244998 -70.124999,412.104998 -70.124999,414.294998 C-70.124999,416.514998 -69.434999,418.344998 -68.084999,419.814998 C-66.704999,421.314998 -64.904999,422.064998 -62.684999,422.064998 C-61.514999,422.064998 -60.344999,421.824998 -59.204999,421.314998 C-58.814999,421.134998 -58.394999,420.924998 -58.004999,420.654998 C-57.854999,420.564998 -57.674999,420.444998 -57.524999,420.354998 L-57.164999,420.084998 Z M-38.1149994,422.964998 C-39.5249994,421.524998 -40.2149994,419.574998 -40.2149994,417.084998 L-40.2149994,403.794998 L-36.8849994,403.794998 L-36.8849994,417.054998 C-36.8849994,418.614998 -36.4649994,419.844998 -35.6549994,420.744998 C-34.8149994,421.644998 -33.6149994,422.094998 -32.0849994,422.094998 C-30.5549994,422.094998 -29.3849994,421.644998 -28.5149994,420.714998 C-27.7049994,419.814998 -27.2849994,418.584998 -27.2849994,417.024998 L-27.2849994,403.794998 L-23.9849994,403.794998 L-23.9849994,417.054998 C-23.9849994,419.484998 -24.7049994,421.434998 -26.1149994,422.904998 C-27.5849994,424.434998 -29.5949994,425.184998 -32.0849994,425.184998 C-34.6649994,425.184998 -36.6749994,424.434998 -38.1149994,422.964998 Z M-8.14499981,420.444998 L-5.32499981,419.124998 C-4.57499981,421.104998 -3.19499981,422.094998 -1.21499981,422.094998 C-0.254999809,422.094998 0.495000191,421.854998 1.06500019,421.344998 C1.63500019,420.834998 1.93500019,420.144998 1.93500019,419.274998 C1.93500019,418.284998 1.45500019,417.444998 0.465000191,416.754998 C0.0750001907,416.484998 -0.434999809,416.214998 -1.06499981,415.884998 L-1.90499981,415.464998 L-2.77499981,415.044998 C-4.27499981,414.324998 -5.35499981,413.604998 -6.04499981,412.884998 C-7.03499981,411.864998 -7.51499981,410.604998 -7.51499981,409.074998 C-7.51499981,407.424998 -6.94499981,406.074998 -5.80499981,405.024998 C-4.63499981,403.944998 -3.10499981,403.404998 -1.21499981,403.404998 C0.555000191,403.404998 2.02500019,403.944998 3.19500019,404.994998 C3.64500019,405.384998 4.03500019,405.864998 4.36500019,406.404998 C4.63500019,406.824998 4.84500019,407.244998 4.99500019,407.694998 L2.23500019,408.924998 C2.08500019,408.624998 1.93500019,408.354998 1.78500019,408.114998 C1.57500019,407.784998 1.33500019,407.514998 1.06500019,407.304998 C0.435000191,406.734998 -0.344999809,406.464998 -1.27499981,406.464998 C-2.17499981,406.464998 -2.89499981,406.704998 -3.43499981,407.214998 C-3.94499981,407.694998 -4.18499981,408.294998 -4.18499981,409.044998 C-4.18499981,409.944998 -3.67499981,410.724998 -2.68499981,411.414998 C-2.32499981,411.684998 -1.81499981,411.954998 -1.18499981,412.284998 L-0.314999809,412.704998 L0.585000191,413.124998 C2.05500019,413.844998 3.13500019,414.564998 3.82500019,415.284998 C4.81500019,416.304998 5.32500019,417.564998 5.32500019,419.034998 C5.32500019,420.834998 4.72500019,422.304998 3.52500019,423.414998 C2.29500019,424.584998 0.675000191,425.184998 -1.36499981,425.184998 C-3.28499981,425.184998 -4.87499981,424.614998 -6.13499981,423.504998 C-7.06499981,422.694998 -7.72499981,421.674998 -8.14499981,420.444998 Z M41.9249994,424.794998 L41.9249994,403.794998 L45.2849994,403.794998 L55.5749994,419.574998 L55.5749994,403.794998 L58.8449994,403.794998 L58.8449994,424.794998 L55.5449994,424.794998 L45.2249994,409.104998 L45.2249994,424.794998 L41.9249994,424.794998 Z M76.124999,424.794998 L76.124999,403.794998 L86.504999,403.794998 L86.504999,406.794998 L79.454999,406.794998 L79.454999,412.644998 L85.574999,412.644998 L85.574999,415.614998 L79.454999,415.614998 L79.454999,421.794998 L86.804999,421.794998 L86.804999,424.794998 L76.124999,424.794998 Z M120.104999,424.794998 L115.574999,408.774998 L111.044999,424.794998 L107.294999,424.794998 L101.474999,403.794998 L105.044999,403.794998 L109.334999,420.654998 L113.984999,403.794998 L117.134999,403.794998 L121.814999,420.654998 L126.104999,403.794998 L129.644999,403.794998 L123.854999,424.794998 L120.104999,424.794998 Z M143.714998,420.444998 L146.534998,419.124998 C147.284998,421.104998 148.664998,422.094998 150.644998,422.094998 C151.604998,422.094998 152.354998,421.854998 152.924998,421.344998 C153.494998,420.834998 153.794998,420.144998 153.794998,419.274998 C153.794998,418.284998 153.314998,417.444998 152.324998,416.754998 C151.934998,416.484998 151.424998,416.214998 150.794998,415.884998 L149.954998,415.464998 L149.084998,415.044998 C147.584998,414.324998 146.504998,413.604998 145.814998,412.884998 C144.824998,411.864998 144.344998,410.604998 144.344998,409.074998 C144.344998,407.424998 144.914998,406.074998 146.054998,405.024998 C147.224998,403.944998 148.754998,403.404998 150.644998,403.404998 C152.414998,403.404998 153.884998,403.944998 155.054998,404.994998 C155.504998,405.384998 155.894998,405.864998 156.224998,406.404998 C156.494998,406.824998 156.704998,407.244998 156.854998,407.694998 L154.094998,408.924998 C153.944998,408.624998 153.794998,408.354998 153.644998,408.114998 C153.434998,407.784998 153.194998,407.514998 152.924998,407.304998 C152.294998,406.734998 151.514998,406.464998 150.584998,406.464998 C149.684998,406.464998 148.964998,406.704998 148.424998,407.214998 C147.914998,407.694998 147.674998,408.294998 147.674998,409.044998 C147.674998,409.944998 148.184998,410.724998 149.174998,411.414998 C149.534998,411.684998 150.044998,411.954998 150.674998,412.284998 L151.544998,412.704998 L152.444998,413.124998 C153.914998,413.844998 154.994998,414.564998 155.684998,415.284998 C156.674998,416.304998 157.184998,417.564998 157.184998,419.034998 C157.184998,420.834998 156.584998,422.304998 155.384998,423.414998 C154.154998,424.584998 152.534998,425.184998 150.494998,425.184998 C148.574998,425.184998 146.984998,424.614998 145.724998,423.504998 C144.794998,422.694998 144.134998,421.674998 143.714998,420.444998 Z" id="Focus-News" fill="#FFFFFF" transform="translate(10.890000, 414.294998) rotate(-90.000000) translate(-10.890000, -414.294998) "></path>
            </g>
        </g>
    </g>
</svg>