<?xml version="1.0" encoding="UTF-8"?>
<svg width="18px" height="254px" viewBox="0 0 18 254" version="1.1" xmlns="http://www.w3.org/2000/svg" xmlns:xlink="http://www.w3.org/1999/xlink">
    <!-- Generator: Sketch 51.3 (57544) - http://www.bohemiancoding.com/sketch -->
    <title>Group 6</title>
    <desc>Created with Sketch.</desc>
    <defs></defs>
    <g id="saostar-PC---special" stroke="none" stroke-width="1" fill="none" fill-rule="evenodd">
        <g id="saostar-pc-special" transform="translate(-1626.000000, -866.000000)">
            <g id="Group-6" transform="translate(1626.000000, 866.000000)">
                <path d="M-81.384,98.736 L-75.792,90.12 L-81.096,81.936 L-77.928,81.936 L-74.208,88.056 L-70.464,81.936 L-67.32,81.936 L-72.624,90.12 L-67.008,98.736 L-70.008,98.736 L-74.232,92.112 L-78.408,98.736 L-81.384,98.736 Z M-53.928,87.744 C-52.752,86.52 -51.312,85.896 -49.584,85.896 C-47.712,85.896 -46.224,86.496 -45.144,87.696 C-44.088,88.872 -43.56,90.456 -43.56,92.448 C-43.56,92.736 -43.56,92.952 -43.584,93.096 L-53.016,93.096 C-52.992,94.2 -52.632,95.088 -51.888,95.76 C-51.168,96.432 -50.256,96.768 -49.128,96.768 C-48.288,96.768 -47.52,96.552 -46.872,96.144 C-46.392,95.856 -45.984,95.472 -45.672,95.016 L-43.944,96.312 C-44.352,97.008 -44.928,97.584 -45.672,98.064 C-46.68,98.712 -47.856,99.048 -49.176,99.048 C-51.12,99.048 -52.68,98.424 -53.904,97.2 C-55.08,96 -55.68,94.44 -55.68,92.52 C-55.68,90.6 -55.104,89.016 -53.928,87.744 Z M-52.92,91.296 L-46.224,91.296 C-46.272,90.288 -46.608,89.496 -47.256,88.92 C-47.856,88.368 -48.624,88.08 -49.56,88.08 C-50.472,88.08 -51.24,88.368 -51.84,88.944 C-52.488,89.544 -52.848,90.312 -52.92,91.296 Z M-13.44,90.552 L-13.44,98.736 L-16.032,98.736 L-16.032,91.224 C-16.032,89.232 -16.824,88.248 -18.432,88.248 C-19.176,88.248 -19.8,88.512 -20.256,89.016 C-20.736,89.568 -20.976,90.312 -20.976,91.248 L-20.976,98.736 L-23.592,98.736 L-23.592,90.984 C-23.592,90.144 -23.808,89.472 -24.24,88.968 C-24.648,88.488 -25.248,88.248 -25.992,88.248 C-26.712,88.248 -27.312,88.512 -27.792,89.04 C-28.272,89.592 -28.512,90.312 -28.512,91.2 L-28.512,98.736 L-31.128,98.736 L-31.128,86.208 L-28.56,86.208 L-28.56,87.84 C-28.296,87.312 -27.888,86.856 -27.336,86.496 C-26.688,86.088 -25.968,85.896 -25.176,85.896 C-23.424,85.896 -22.224,86.592 -21.576,87.984 C-20.784,86.592 -19.512,85.896 -17.712,85.896 C-16.344,85.896 -15.264,86.328 -14.52,87.216 C-13.8,88.032 -13.44,89.136 -13.44,90.552 Z M16.272,86.208 L16.272,83.592 L18.864,83.592 L18.864,86.208 L21.408,86.208 L21.408,88.368 L18.864,88.368 L18.864,94.2 C18.864,95.136 19.056,95.76 19.416,96.12 C19.728,96.432 20.256,96.576 21,96.576 C21.144,96.576 21.312,96.576 21.504,96.552 L21.504,98.808 C21.192,98.88 20.784,98.904 20.232,98.904 C18.792,98.904 17.76,98.424 17.112,97.488 C16.56,96.672 16.272,95.448 16.272,93.792 L16.272,88.368 L14.88,88.368 L14.88,86.208 L16.272,86.208 Z M43.44,87.528 C44.088,88.464 44.4,89.688 44.4,91.2 L44.4,98.736 L41.808,98.736 L41.808,90.984 C41.808,90.144 41.568,89.472 41.088,88.968 C40.632,88.488 40.032,88.248 39.288,88.248 C38.472,88.248 37.8,88.512 37.296,89.064 C36.792,89.616 36.528,90.312 36.528,91.176 L36.528,98.736 L33.912,98.736 L33.912,81.384 L36.528,81.384 L36.528,87.84 C36.84,87.288 37.272,86.856 37.848,86.496 C38.52,86.088 39.24,85.896 40.032,85.896 C41.544,85.896 42.672,86.448 43.44,87.528 Z M58.56,87.744 C59.736,86.52 61.176,85.896 62.904,85.896 C64.776,85.896 66.264,86.496 67.344,87.696 C68.4,88.872 68.928,90.456 68.928,92.448 C68.928,92.736 68.928,92.952 68.904,93.096 L59.472,93.096 C59.496,94.2 59.856,95.088 60.6,95.76 C61.32,96.432 62.232,96.768 63.36,96.768 C64.2,96.768 64.968,96.552 65.616,96.144 C66.096,95.856 66.504,95.472 66.816,95.016 L68.544,96.312 C68.136,97.008 67.56,97.584 66.816,98.064 C65.808,98.712 64.632,99.048 63.312,99.048 C61.368,99.048 59.808,98.424 58.584,97.2 C57.408,96 56.808,94.44 56.808,92.52 C56.808,90.6 57.384,89.016 58.56,87.744 Z M59.568,91.296 L66.264,91.296 C66.216,90.288 65.88,89.496 65.232,88.92 C64.632,88.368 63.864,88.08 62.928,88.08 C62.016,88.08 61.248,88.368 60.648,88.944 C60,89.544 59.64,90.312 59.568,91.296 Z M63.648,84.72 L62.88,83.64 L62.112,84.72 L60.384,84.72 L61.968,82.44 L63.768,82.44 L65.352,84.72 L63.648,84.72 Z M99.048,90.552 L99.048,98.736 L96.456,98.736 L96.456,91.224 C96.456,89.232 95.664,88.248 94.056,88.248 C93.312,88.248 92.688,88.512 92.232,89.016 C91.752,89.568 91.512,90.312 91.512,91.248 L91.512,98.736 L88.896,98.736 L88.896,90.984 C88.896,90.144 88.68,89.472 88.248,88.968 C87.84,88.488 87.24,88.248 86.496,88.248 C85.776,88.248 85.176,88.512 84.696,89.04 C84.216,89.592 83.976,90.312 83.976,91.2 L83.976,98.736 L81.36,98.736 L81.36,86.208 L83.928,86.208 L83.928,87.84 C84.192,87.312 84.6,86.856 85.152,86.496 C85.8,86.088 86.52,85.896 87.312,85.896 C89.064,85.896 90.264,86.592 90.912,87.984 C91.704,86.592 92.976,85.896 94.776,85.896 C96.144,85.896 97.224,86.328 97.968,87.216 C98.688,88.032 99.048,89.136 99.048,90.552 Z" id="Xem-thêm" fill="#FFFFFF" transform="translate(8.832000, 90.216000) rotate(90.000000) translate(-8.832000, -90.216000) "></path>
                <g id="Group-3" transform="translate(7.000000, 225.000000) rotate(180.000000) translate(-7.000000, -225.000000) translate(0.000000, 196.000000)" fill="#ED1C24">
                    <polygon id="Path-2" points="7 0 7 8 0 8"></polygon>
                    <rect id="Rectangle-21-Copy-4" transform="translate(7.500000, 33.000000) scale(-1, 1) translate(-7.500000, -33.000000) " x="6" y="8" width="3" height="50"></rect>
                    <polygon id="Path-2-Copy" transform="translate(10.500000, 4.000000) scale(-1, 1) translate(-10.500000, -4.000000) " points="14 0 14 8 7 8"></polygon>
                </g>
            </g>
        </g>
    </g>
</svg>