<?xml version="1.0" encoding="utf-8"?>
<!-- Generator: Adobe Illustrator 23.0.6, SVG Export Plug-In . SVG Version: 6.00 Build 0)  -->
<svg version="1.1" id="Capa_1" xmlns="http://www.w3.org/2000/svg" xmlns:xlink="http://www.w3.org/1999/xlink" x="0px" y="0px"
	 viewBox="0 0 35 35" style="enable-background:new 0 0 35 35;" xml:space="preserve">
<style type="text/css">
	.st0{fill:#EC1C24;}
</style>
<g>
	<g id="XMLID_19_">
		<path id="XMLID_23_" class="st0" d="M22.7,25.8c0-0.5-0.1-0.6-0.6-0.6c-0.5,0-1,0-1.5,0l0,0h-3.2c-0.2,0-0.5,0-0.7,0l0,0h-2.7l0,0
			c-0.4,0-0.8,0-1.2,0c-0.4,0-0.5,0.1-0.5,0.5c0,0.7,0,1.5,0,2.2c0,0.5,0.1,1,0.5,1.3c0.4,0.4,0.9,0.8,1.3,1.3
			c0.1,0.1,0.1,0.2,0.2,0.3h3.9l-3.9,1.4c0,0.2,0,0.4,0,0.6c0,0.6,0.2,0.9,0.7,1.1c0.2,0.1,0.4,0.1,0.6,0.2c0.1,0.1,0.3,0.2,0.4,0.3
			c0.2,0.3,0.4,0.5,0.7,0.5c0.5,0,1.1,0,1.6,0c0.2,0,0.6-0.2,0.6-0.4c0.1-0.3,0.4-0.4,0.7-0.5c0.1,0,0.3-0.1,0.4-0.2
			c0.5-0.2,0.7-0.6,0.7-1.1c0-0.6,0-1.2,0-1.8c0-0.1,0.1-0.3,0.2-0.4c0.4-0.4,0.9-0.8,1.3-1.2c0.4-0.4,0.5-0.9,0.5-1.4
			C22.7,27.2,22.7,26.5,22.7,25.8z"/>
		<path id="XMLID_20_" class="st0" d="M28.8,11.2c0-6.2-5-11.2-11.1-11.3c-6.2-0.1-11.4,5-11.4,11.2c0,3.1,1.2,5.8,3.2,7.9
			c1.8,1.9,2.9,4.4,2.9,7.1v0.3h10.4v-0.2c0-2.7,1-5.3,2.9-7.2C27.6,17,28.8,14.3,28.8,11.2z M10.5,11.2c0-3.9,3.2-7,7-7
			c0.9,0,1.7,0.7,1.7,1.7s-0.8,1.7-1.7,1.7c-2,0-3.7,1.6-3.7,3.7c0,0.9-0.8,1.7-1.7,1.7C11.2,12.9,10.5,12.2,10.5,11.2z"/>
	</g>
</g>
</svg>
