<?xml version="1.0" encoding="utf-8"?>
<!-- Generator: Adobe Illustrator 23.0.6, SVG Export Plug-In . SVG Version: 6.00 Build 0)  -->
<svg version="1.1" id="Layer_1" xmlns="http://www.w3.org/2000/svg" xmlns:xlink="http://www.w3.org/1999/xlink" x="0px" y="0px"
	 viewBox="0 0 35 35" style="enable-background:new 0 0 35 35;" xml:space="preserve">
<style type="text/css">
	.st0{fill:#EC1C24;}
</style>
<g>
	<g>
		<path class="st0" d="M5.7,11.5H1.1C0.5,11.5,0,12,0,12.6v20.6c0,0.6,0.5,1.1,1.1,1.1h4.6c0.6,0,1.1-0.5,1.1-1.1V12.6
			C6.9,12,6.3,11.5,5.7,11.5z"/>
	</g>
</g>
<g>
	<g>
		<path class="st0" d="M32.1,11.5c-0.2,0-8.8,0-8.8,0l1.2-3.3c0.8-2.3,0.3-5.7-2-7c-0.8-0.4-1.8-0.6-2.6-0.4C19.4,1,19,1.3,18.7,1.7
			c-0.3,0.5-0.3,1.1-0.4,1.6c-0.3,1.4-0.9,2.7-1.9,3.7c-1.8,1.7-7.3,6.7-7.3,6.7v18.3h19c2.6,0,4.3-2.9,3-5.1c1.5-1,2-3,1.1-4.6
			c1.5-1,2-3,1.1-4.6C36.1,16.1,35.2,12,32.1,11.5z"/>
	</g>
</g>
</svg>
