<?xml version="1.0" encoding="UTF-8"?>
<svg width="27px" height="20px" viewBox="0 0 27 20" version="1.1" xmlns="http://www.w3.org/2000/svg" xmlns:xlink="http://www.w3.org/1999/xlink">
    <!-- Generator: Sketch 51.3 (57544) - http://www.bohemiancoding.com/sketch -->
    <title>vote</title>
    <desc>Created with Sketch.</desc>
    <defs>
        <polygon id="path-1" points="2.32174094e-05 0.110694444 8.46894026 0.110694444 8.46894026 11.1495417 2.32174094e-05 11.1495417"></polygon>
    </defs>
    <g id="muc-music" stroke="none" stroke-width="1" fill="none" fill-rule="evenodd">
        <g id="pc-music" transform="translate(-906.000000, -1060.000000)">
            <g id="3-box" transform="translate(476.000000, 1060.000000)">
                <g id="vote" transform="translate(430.000000, 0.000000)">
                    <g>
                        <g>
                            <g id="Group-3" transform="translate(0.000000, 0.028194)">
                                <mask id="mask-2" fill="white">
                                    <use xlink:href="#path-1"></use>
                                </mask>
                                <g id="Clip-2"></g>
                                <path d="M8.43306944,0.516208333 L3.61223611,10.9787083 C3.54973611,11.0925972 3.46223611,11.1495417 3.34834722,11.1495417 L3.19140278,11.1495417 C3.06779167,11.1495417 2.98029167,11.0925972 2.92751389,10.9787083 L0.0372361111,4.69398611 C-0.0141527778,4.59120833 -0.0127638889,4.49954167 0.0441805556,4.41620833 C0.101125,4.33565278 0.185847222,4.29398611 0.296958333,4.29398611 L1.86084722,4.29398611 C1.93306944,4.29398611 1.98723611,4.31204167 2.03029167,4.34815278 C2.07056944,4.38426389 2.101125,4.42176389 2.12195833,4.46204167 L3.238625,6.96759722 L3.31640278,6.96759722 L6.31779167,0.281486111 C6.338625,0.239819444 6.36918056,0.200930556 6.41084722,0.166208333 C6.45251389,0.128708333 6.50945833,0.110652778 6.58306944,0.110652778 L8.16640278,0.110652778 C8.28168056,0.110652778 8.36779167,0.153708333 8.42334722,0.234263889 C8.48168056,0.318986111 8.48306944,0.412041667 8.43306944,0.516208333" id="Fill-1" fill="#EB2227" mask="url(#mask-2)"></path>
                            </g>
                            <path d="M12.2342778,8.20065278 C12.1356667,8.44426389 11.9999722,8.65620833 11.8288611,8.83856944 C11.65775,9.01898611 11.4587222,9.16218056 11.2299722,9.26634722 C11.0030278,9.36856944 10.7594167,9.42065278 10.5009444,9.42065278 C10.2406667,9.42065278 9.99691667,9.36856944 9.76997222,9.26634722 C9.54122222,9.16218056 9.34413889,9.01898611 9.17872222,8.83856944 C9.01316667,8.65620833 8.88108333,8.44426389 8.78247222,8.20065278 C8.68386111,7.95690278 8.63372222,7.69468056 8.63372222,7.41579167 C8.63372222,7.14606944 8.68386111,6.89120833 8.78247222,6.65315278 C8.88108333,6.41523611 9.01316667,6.20704167 9.17872222,6.03218056 C9.34413889,5.855375 9.54122222,5.71593056 9.76997222,5.61176389 C9.99691667,5.50759722 10.2406667,5.45551389 10.5009444,5.45551389 C10.7594167,5.45551389 11.0030278,5.50759722 11.2299722,5.61176389 C11.4587222,5.71593056 11.65775,5.855375 11.8288611,6.03218056 C11.9999722,6.20704167 12.1356667,6.41523611 12.2342778,6.65315278 C12.3309444,6.89120833 12.3812222,7.14606944 12.3812222,7.41579167 C12.3812222,7.69468056 12.3309444,7.95690278 12.2342778,8.20065278 M13.8969167,5.97620833 C13.7053889,5.52620833 13.4412222,5.13009722 13.1046944,4.787875 C12.7680278,4.44565278 12.3756667,4.17593056 11.9310833,3.97898611 C11.4848333,3.78176389 11.0067778,3.68329167 10.5009444,3.68329167 C9.99136111,3.68329167 9.51525,3.78176389 9.06886111,3.97898611 C8.62441667,4.17593056 8.23566667,4.44565278 7.90275,4.787875 C7.57177778,5.13009722 7.30955556,5.52620833 7.11802778,5.97620833 C6.9265,6.42815278 6.83163889,6.90801389 6.83163889,7.41579167 C6.83163889,7.93273611 6.9265,8.42009722 7.11802778,8.87759722 C7.30955556,9.33315278 7.57177778,9.73120833 7.90275,10.0732917 C8.23566667,10.4155139 8.62441667,10.6870417 9.06886111,10.8898194 C9.51525,11.0925972 9.99136111,11.1930139 10.5009444,11.1930139 C11.0067778,11.1930139 11.4848333,11.0925972 11.9310833,10.8898194 C12.3756667,10.6870417 12.7680278,10.4155139 13.1046944,10.0732917 C13.4412222,9.73120833 13.7053889,9.33315278 13.8969167,8.87759722 C14.0884444,8.42009722 14.1851111,7.93273611 14.1851111,7.41579167 C14.1851111,6.90801389 14.0884444,6.42815278 13.8969167,5.97620833" id="Fill-4" fill="#EB2227"></path>
                            <path d="M19.4390694,10.3151806 L19.2382361,9.37420833 C19.215875,9.29226389 19.1694861,9.22906944 19.0968472,9.18823611 C19.0243472,9.14726389 18.9369861,9.14726389 18.8328194,9.18823611 C18.7807361,9.20851389 18.7119861,9.23281944 18.6244861,9.25698611 C18.5351806,9.28295833 18.4385139,9.307125 18.3362917,9.32768056 C18.232125,9.34809722 18.1260139,9.36865278 18.0162917,9.38893056 C17.908375,9.41129167 17.8174028,9.42073611 17.7447639,9.42073611 C17.5680972,9.42073611 17.4268472,9.38156944 17.317125,9.30351389 C17.2092083,9.22531944 17.153375,9.06726389 17.153375,8.82740278 L17.153375,5.58018056 L18.8328194,5.58018056 C18.9257361,5.58018056 19.0076806,5.54476389 19.0744861,5.47226389 C19.1414306,5.39976389 19.1750417,5.32170833 19.1750417,5.23795833 L19.1750417,4.18156944 C19.1750417,4.07740278 19.1414306,3.99559722 19.0744861,3.93240278 C19.0076806,3.87101389 18.9257361,3.83934722 18.8328194,3.83934722 L17.153375,3.83934722 L17.153375,1.84948611 C17.153375,1.75643056 17.1236528,1.67643056 17.0604583,1.60768056 C16.9990694,1.54073611 16.9210139,1.50726389 16.8279583,1.50726389 L15.552125,1.50726389 C15.4703194,1.50726389 15.392125,1.54073611 15.319625,1.60768056 C15.247125,1.67643056 15.2099028,1.75643056 15.2099028,1.84948611 L15.2099028,3.83934722 L14.5107361,3.83934722 C14.4176806,3.83934722 14.3394861,3.87101389 14.2782361,3.93240278 C14.2149028,3.99559722 14.1851806,4.07740278 14.1851806,4.18156944 L14.1851806,5.23795833 C14.1851806,5.32170833 14.2149028,5.39976389 14.2782361,5.47226389 C14.3394861,5.54476389 14.4176806,5.58018056 14.5107361,5.58018056 L15.2099028,5.58018056 L15.2099028,8.87754167 C15.2099028,9.18823611 15.2397639,9.48393056 15.2954583,9.76281944 C15.3530972,10.0436528 15.4572639,10.2892083 15.6079583,10.5011528 C15.7567083,10.7130972 15.9630972,10.8824028 16.2215694,11.0069861 C16.4801806,11.1315694 16.8130972,11.1929583 17.2167083,11.1929583 C17.4025417,11.1929583 17.6017083,11.1744861 17.8154583,11.1390694 C18.0275417,11.1037917 18.2265694,11.0628194 18.4143472,11.0162917 C18.6003194,10.9699028 18.7676806,10.9178194 18.918375,10.8619861 C19.0689306,10.8061528 19.1750417,10.7615694 19.2382361,10.7317083 C19.4130972,10.6387917 19.4818472,10.4992083 19.4390694,10.3151806" id="Fill-6" fill="#EB2227"></path>
                            <path d="M21.4774444,6.52869444 C21.5275833,6.16605556 21.6857778,5.86841667 21.95175,5.63411111 C22.2157778,5.40161111 22.5653611,5.28438889 23.0006389,5.28438889 C23.3948056,5.28438889 23.7184167,5.40536111 23.9714722,5.64341667 C24.2261944,5.88147222 24.3638333,6.17716667 24.38425,6.52869444 L21.4774444,6.52869444 Z M26.0710556,5.67313889 C25.8999444,5.26966667 25.6674444,4.91994444 25.3736944,4.62425 C25.078,4.32855556 24.7320278,4.09786111 24.3339722,3.93244444 C23.9360556,3.76688889 23.5045278,3.68327778 23.0377222,3.68327778 C22.5114722,3.68327778 22.0260556,3.7855 21.5796667,3.98633333 C21.1352222,4.18897222 20.7539722,4.4605 20.4321667,4.80272222 C20.1123056,5.14494444 19.8631389,5.54119444 19.6882778,5.99313889 C19.5116111,6.44313889 19.42425,6.923 19.42425,7.43063889 C19.42425,7.94952778 19.5116111,8.43675 19.6882778,8.89244444 C19.8649444,9.34813889 20.11425,9.748 20.4341111,10.0902222 C20.7557778,10.4323056 21.1388333,10.7020278 21.5852222,10.8973056 C22.0316111,11.0943889 22.5225833,11.193 23.0620278,11.193 C23.6534167,11.193 24.1685556,11.0981389 24.60925,10.9066111 C25.0500833,10.7131389 25.4257778,10.4825833 25.7363333,10.2128611 C25.8200833,10.1310556 25.8609167,10.0510556 25.8609167,9.973 C25.8609167,9.89480556 25.82925,9.8205 25.768,9.748 L25.1616111,8.93897222 C25.1095278,8.85522222 25.0389722,8.818 24.9514722,8.82175 C24.8641111,8.82744444 24.7785556,8.86633333 24.6948056,8.93897222 C24.5293889,9.07286111 24.3210556,9.1955 24.0736944,9.30355556 C23.8243889,9.41327778 23.5175833,9.46702778 23.1549444,9.46702778 C22.8964722,9.46702778 22.6584167,9.42438889 22.4407778,9.33508333 C22.2231389,9.24758333 22.0353611,9.12480556 21.8809167,8.9705 C21.7248056,8.81438889 21.6002222,8.63577778 21.5071667,8.43313889 C21.4141111,8.23230556 21.3677222,8.02202778 21.3677222,7.80452778 L25.9557778,7.80452778 C26.0375833,7.80452778 26.1138333,7.77286111 26.1807778,7.71147222 C26.2477222,7.64827778 26.28675,7.57008333 26.2960556,7.47716667 C26.3073056,7.42508333 26.3148056,7.34883333 26.3203611,7.24466667 C26.3241111,7.1405 26.3277222,7.06244444 26.3277222,7.01036111 C26.3277222,6.52313889 26.2421667,6.07855556 26.0710556,5.67313889 Z" id="Fill-8" fill="#EB2227"></path>
                            <path d="M7.82408333,13.9497639 C7.74227778,13.5555972 7.59158333,13.2060139 7.37408333,12.900875 C7.15644444,12.5940694 6.86075,12.3542083 6.487,12.1774028 C6.11491667,12.0007361 5.64255556,11.913375 5.07352778,11.913375 C4.73130556,11.913375 4.42811111,11.9543472 4.16394444,12.0379583 C3.89991667,12.1217083 3.67311111,12.2165694 3.487,12.3262917 C3.30116667,12.4340694 3.14672222,12.5475417 3.02769444,12.6665694 C2.90866667,12.7875417 2.81936111,12.8822639 2.75616667,12.9549028 L2.492,12.287125 C2.44005556,12.142125 2.34144444,12.069625 2.19630556,12.069625 L1.60491667,12.069625 C1.52311111,12.069625 1.44505556,12.0993472 1.37255556,12.1625417 C1.29991667,12.2239306 1.26463889,12.3076806 1.26463889,12.4118472 L1.26463889,18.9099028 C1.26463889,19.0029583 1.29991667,19.0828194 1.37255556,19.1517083 C1.44505556,19.2186528 1.52311111,19.252125 1.60491667,19.252125 L2.75616667,19.252125 C2.93283333,19.252125 3.05186111,19.2279583 3.11325,19.1814306 C3.17644444,19.1349028 3.20616667,19.0437917 3.20616667,18.9099028 L3.20616667,14.8053194 C3.24908333,14.6807361 3.31033333,14.5543472 3.39408333,14.4240694 C3.47588889,14.2939306 3.58005556,14.1749028 3.70463889,14.0669861 C3.82922222,13.9572639 3.97616667,13.8679583 4.14727778,13.7954583 C4.31838889,13.7229583 4.52297222,13.6857361 4.76102778,13.6857361 C5.19811111,13.6857361 5.51422222,13.8214306 5.7095,14.0893472 C5.90658333,14.3589306 6.00519444,14.7272639 6.00519444,15.1940694 L6.00519444,18.9099028 C6.00519444,19.0029583 6.03866667,19.0828194 6.10755556,19.1517083 C6.1745,19.2186528 6.2545,19.252125 6.34741667,19.252125 L7.60658333,19.252125 C7.69019444,19.252125 7.76825,19.2186528 7.84088889,19.1517083 C7.91338889,19.0828194 7.94866667,19.0029583 7.94866667,18.9099028 L7.94866667,15.1940694 C7.94866667,14.7587917 7.90783333,14.3440694 7.82408333,13.9497639" id="Fill-10" fill="#2C3642"></path>
                            <path d="M15.5589306,14.2065139 C15.3674028,13.756375 15.1032361,13.3584583 14.7667083,13.0180417 C14.4300417,12.6758194 14.0394861,12.4062361 13.5930972,12.2090139 C13.1468472,12.0119306 12.6707361,11.9133194 12.1629583,11.9133194 C11.6553194,11.9133194 11.1772639,12.0119306 10.7328194,12.2090139 C10.2864306,12.4062361 9.89781944,12.6758194 9.56670833,13.0180417 C9.23379167,13.3584583 8.973375,13.756375 8.78004167,14.2065139 C8.588375,14.6584583 8.49365278,15.136375 8.49365278,15.6441528 C8.49365278,16.1630417 8.588375,16.6502639 8.78004167,17.1059583 C8.973375,17.5634583 9.23379167,17.961375 9.56670833,18.3035972 C9.89781944,18.6458194 10.2864306,18.9173472 10.7328194,19.1199861 C11.1772639,19.3208194 11.6553194,19.4231806 12.1629583,19.4231806 C12.4455972,19.4231806 12.7190694,19.3915139 12.9812917,19.3283194 L12.4215694,17.6322083 C12.3378194,17.6452639 12.2504583,17.6508194 12.1629583,17.6508194 C11.9025417,17.6508194 11.6589306,17.5987361 11.432125,17.4945694 C11.203375,17.3922083 11.0061528,17.2490139 10.8405972,17.0669306 C10.6751806,16.8865139 10.5430972,16.6744306 10.4444861,16.4308194 C10.3460139,16.1872083 10.2976806,15.9248472 10.2976806,15.6441528 C10.2976806,15.376375 10.3460139,15.1215139 10.4444861,14.8834583 C10.5430972,14.6454028 10.6751806,14.4370694 10.8405972,14.2604028 C11.0061528,14.0855417 11.203375,13.9441528 11.432125,13.8419306 C11.6589306,13.7377639 11.9025417,13.6856806 12.1629583,13.6856806 C12.4215694,13.6856806 12.6651806,13.7377639 12.8939306,13.8419306 C13.1207361,13.9441528 13.3217083,14.0855417 13.4928194,14.2604028 C13.6637917,14.4370694 13.7976806,14.6454028 13.8962917,14.8834583 C13.9949028,15.1215139 14.0432361,15.376375 14.0432361,15.6441528 C14.0432361,15.7948472 14.028375,15.9416528 14.0004583,16.0810972 L15.7151806,16.6483194 C15.8044861,16.3284583 15.8472639,15.9937361 15.8472639,15.6441528 C15.8472639,15.136375 15.7524028,14.6584583 15.5589306,14.2065139" id="Fill-12" fill="#2C3642"></path>
                            <path d="M25.9607361,12.1849028 C25.8937917,12.1068472 25.797125,12.069625 25.6743472,12.069625 L24.5844861,12.069625 C24.4914306,12.069625 24.4097639,12.0787917 24.337125,12.0993472 C24.264625,12.1217083 24.2125417,12.1829583 24.180875,12.287125 L23.1078194,15.7072639 L23.0929583,15.7072639 L21.2275417,12.069625 C21.1754583,11.9654583 21.0768472,11.913375 20.9318472,11.913375 L20.7924028,11.913375 C20.6454583,11.913375 20.5525417,11.9654583 20.5115694,12.069625 L18.6294861,15.7072639 L18.6144861,15.7072639 L17.5265694,12.287125 C17.5061528,12.214625 17.4615694,12.1589306 17.3944861,12.1235139 C17.3275417,12.0862917 17.2680972,12.069625 17.2160139,12.069625 L16.0035139,12.069625 C15.8787917,12.069625 15.785875,12.1068472 15.7226806,12.1849028 C15.6612917,12.2629583 15.6555972,12.3597639 15.7076806,12.4730972 L17.9004583,19.2204583 C17.9412917,19.3562917 18.0454583,19.4230972 18.2110139,19.4230972 L18.3040694,19.4230972 C18.4286528,19.4230972 18.5215694,19.3654583 18.5829583,19.252125 L20.8389306,14.9300417 L20.8537917,14.9300417 L23.1078194,19.252125 C23.1394861,19.3042083 23.1747639,19.3451806 23.2175417,19.3767083 C23.258375,19.4064306 23.3197639,19.4230972 23.4035139,19.4230972 L23.4649028,19.4230972 C23.6415694,19.4230972 23.7512917,19.3562917 23.7922639,19.2204583 L25.9997639,12.4730972 C26.0407361,12.3597639 26.0276806,12.2629583 25.9607361,12.1849028" id="Fill-14" fill="#2C3642"></path>
                            <path d="M15.9554583,17.2283056 L12.705875,16.1530278 C12.5782361,16.1106667 12.4569861,16.2319167 12.4992083,16.3595556 L13.574625,19.6092778 C13.6247639,19.7608056 13.8404583,19.7578889 13.8865694,19.6048333 L14.1639306,18.6813611 C14.1994861,18.5628889 14.3486528,18.5253889 14.4361528,18.6128889 L15.6647639,19.8413611 C15.7286528,19.90525 15.832125,19.90525 15.8960139,19.8413611 L16.1876806,19.5498333 C16.2515694,19.4859444 16.2515694,19.3823333 16.1876806,19.3184444 L14.9590694,18.0898333 C14.8715694,18.0023333 14.9092083,17.8531667 15.0276806,17.8176111 L15.9511528,17.54025 C16.1042083,17.4942778 16.107125,17.2785833 15.9554583,17.2283056" id="Fill-16" fill="#EB2227"></path>
                        </g>
                    </g>
                </g>
            </g>
        </g>
    </g>
</svg>