<?xml version="1.0" encoding="UTF-8" standalone="no"?>
<svg width="167px" height="30px" viewBox="0 0 167 30" version="1.1" xmlns="http://www.w3.org/2000/svg" xmlns:xlink="http://www.w3.org/1999/xlink">
    <!-- Generator: Sketch 46.2 (44496) - http://www.bohemiancoding.com/sketch -->
    <title>Page 1</title>
    <desc>Created with Sketch.</desc>
    <defs>
        <polygon id="path-1" points="0.374700924 29.6993464 11.6419752 29.6993464 11.6419752 0.194718954 0.374700924 0.194718954 0.374700924 29.6993464"></polygon>
        <polygon id="path-3" points="0.105402862 29.2810458 11.3722605 29.2810458 11.3722605 0.024972549 0.105402862 0.024972549 0.105402862 29.2810458"></polygon>
        <polygon id="path-5" points="0.252050321 0.194509804 11.271857 0.194509804 11.271857 29.6992209 0.252050321 29.6992209"></polygon>
        <polygon id="path-7" points="0.0964457014 0.194509804 11.1156275 0.194509804 11.1156275 29.6992209 0.0964457014 29.6992209"></polygon>
    </defs>
    <g id="Page-1" stroke="none" stroke-width="1" fill="none" fill-rule="evenodd">
        <g id="focus-news-02" transform="translate(-103.000000, -13.000000)">
            <g id="Page-1" transform="translate(103.000000, 13.000000)">
                <polygon id="Fill-1" fill="#EB2026" points="0 0.667189542 0 29.6742484 2.47634233 29.6742484 2.47634233 16.0824052 8.29599677 16.0824052 8.29599677 13.7620915 2.47634233 13.7620915 2.47634233 2.98750327 8.50221976 2.98750327 8.50221976 0.667189542"></polygon>
                <g id="Group-72" transform="translate(14.998036, 0.223749)">
                    <g id="Group-4" transform="translate(19.164157, 0.000000)">
                        <mask id="mask-2" fill="white">
                            <use xlink:href="#path-1"></use>
                        </mask>
                        <g id="Clip-3"></g>
                        <path d="M11.6419752,18.4694379 L11.6419752,24.6021438 C11.6419752,28.0004183 9.94969684,29.6995556 6.56514013,29.6995556 L5.45111937,29.6995556 C2.06697928,29.6995556 0.374700924,28.0004183 0.374700924,24.6021438 L0.374700924,5.24988235 C0.374700924,1.88005229 2.06697928,0.194718954 5.45111937,0.194718954 L6.56514013,0.194718954 C9.89428743,0.194718954 11.559486,1.86666667 11.559486,5.20888889 L11.559486,10.5543529 L9.12438827,10.5543529 L9.12438827,5.16705882 C9.12438827,3.39973856 8.22992209,2.51503268 6.44182295,2.51503268 L5.53360857,2.51503268 C3.74467621,2.51503268 2.85104325,3.39973856 2.85104325,5.16705882 L2.85104325,24.7267974 C2.85104325,26.4945359 3.74467621,27.3788235 5.53360857,27.3788235 L6.52431215,27.3788235 C8.31241128,27.3788235 9.20687747,26.4945359 9.20687747,24.7267974 L9.20687747,18.4694379 L11.6419752,18.4694379 Z" id="Fill-2" fill="#EB2026" mask="url(#mask-2)"></path>
                    </g>
                    <g id="Group-7" transform="translate(37.495089, 0.418301)">
                        <mask id="mask-4" fill="white">
                            <use xlink:href="#path-3"></use>
                        </mask>
                        <g id="Clip-6"></g>
                        <path d="M11.3722605,24.1839268 C11.3722605,27.5822013 9.66623397,29.2813386 6.25459747,29.2813386 L5.18182131,29.2813386 C1.7972646,29.2813386 0.105402862,27.5822013 0.105402862,24.1839268 L0.105402862,0.024972549 L2.58132858,0.024972549 L2.58132858,24.266332 C2.58132858,26.0629333 3.48954296,26.9606065 5.30513849,26.9606065 L6.17210828,26.9606065 C7.98770381,26.9606065 8.89591819,26.0629333 8.89591819,24.266332 L8.89591819,0.024972549 L11.3722605,0.024972549 L11.3722605,24.1839268 Z" id="Fill-5" fill="#EB2026" mask="url(#mask-4)"></path>
                    </g>
                    <g id="Group-10" transform="translate(55.409409, 0.000000)">
                        <mask id="mask-6" fill="white">
                            <use xlink:href="#path-5"></use>
                        </mask>
                        <g id="Clip-9"></g>
                        <path d="M10.694016,17.3505673 C11.0793822,18.1244235 11.271857,19.1049203 11.271857,20.2924758 L11.271857,24.6846327 C11.271857,28.0276915 9.57999526,29.6992209 6.19543855,29.6992209 L5.28722417,29.6992209 C1.93016386,29.6992209 0.252050321,28.0419137 0.252050321,24.726881 L0.252050321,18.7589856 L2.68714805,18.7589856 L2.68714805,24.8092863 C2.68714805,26.5226458 3.58119762,27.3789072 5.37012998,27.3789072 L6.11294936,27.3789072 C7.9010485,27.3789072 8.79551468,26.5226458 8.79551468,24.8092863 L8.79551468,20.3752993 C8.79551468,19.5746719 8.65761607,18.9530771 8.38265208,18.510515 C8.1076881,18.0692078 7.69482551,17.6266458 7.14448092,17.1849203 L2.89378765,13.9941229 C1.90308408,13.2759007 1.2223399,12.5229595 0.85072191,11.7352993 C0.479103916,10.9476392 0.293711531,9.97425359 0.293711531,8.81388758 L0.293711531,5.20897255 C0.293711531,1.86633203 1.98557327,0.194384314 5.37012998,0.194384314 L6.15419396,0.194384314 C9.51083765,0.194384314 11.1893678,1.8516915 11.1893678,5.16714248 L11.1893678,10.2645542 L8.75427008,10.2645542 L8.75427008,5.08431895 C8.75427008,3.37179608 7.8598039,2.51511634 6.07170476,2.51511634 L5.45261918,2.51511634 C3.66368682,2.51511634 2.76963725,3.37179608 2.76963725,5.08431895 L2.76963725,8.77247582 C2.76963725,9.57393987 2.90711924,10.1955346 3.18291645,10.6372601 C3.45746383,11.0798222 3.86990981,11.5215477 4.420671,11.9632732 L8.67178088,15.1126588 C9.63457145,15.8312993 10.3086498,16.5771294 10.694016,17.3505673" id="Fill-8" fill="#EB2026" mask="url(#mask-6)"></path>
                    </g>
                    <polygon id="Fill-11" fill="#323232" points="89.0189241 29.4506667 82.4981115 5.54018301 82.5801841 16.9773595 82.5801841 29.4506667 80.27007 29.4506667 80.27007 0.443189542 83.4063259 0.443189542 89.6796709 23.6902484 89.6380097 12.6676078 89.6380097 0.443189542 91.9493736 0.443189542 91.9493736 29.4506667"></polygon>
                    <polygon id="Fill-13" fill="#323232" points="107.340108 0.443315033 107.340108 2.76362876 101.107591 2.76362876 101.107591 13.4963869 107.133885 13.4963869 107.133885 15.817119 101.107591 15.817119 101.107591 27.1300601 107.423014 27.1300601 107.423014 29.4507922 98.6312485 29.4507922 98.6312485 0.443315033"></polygon>
                    <polygon id="Fill-15" fill="#323232" points="128.5867 25.9281987 131.723789 0.443231373 134.117226 0.443231373 130.196489 29.4507085 127.060233 29.4507085 124.212273 6.49311373 121.405974 29.4507085 118.268468 29.4507085 114.348148 0.443231373 116.865319 0.443231373 119.919919 26.052434 123.056174 0.443231373 125.491272 0.443231373"></polygon>
                    <g id="Group-19" transform="translate(140.814890, 0.000000)">
                        <mask id="mask-8" fill="white">
                            <use xlink:href="#path-7"></use>
                        </mask>
                        <g id="Clip-18"></g>
                        <path d="M10.5384114,17.3505673 C10.923361,18.1244235 11.1158358,19.1049203 11.1158358,20.2924758 L11.1158358,24.6846327 C11.1158358,28.0276915 9.42355742,29.6992209 6.03941732,29.6992209 L5.13161955,29.6992209 C1.77414263,29.6992209 0.0964457014,28.0419137 0.0964457014,24.726881 L0.0964457014,18.7589856 L2.53154343,18.7589856 L2.53154343,24.8092863 C2.53154343,26.5226458 3.42517639,27.3789072 5.21410875,27.3789072 L5.95692813,27.3789072 C7.74502726,27.3789072 8.63949345,26.5226458 8.63949345,24.8092863 L8.63949345,20.3752993 C8.63949345,19.5746719 8.50159484,18.9530771 8.22704747,18.510515 C7.95208348,18.0692078 7.53880427,17.6266458 6.9888763,17.1849203 L2.73776642,13.9941229 C1.74664623,13.2759007 1.06631867,12.5229595 0.695117291,11.7352993 C0.323082684,10.9476392 0.137690299,9.97425359 0.137690299,8.81388758 L0.137690299,5.20897255 C0.137690299,1.86633203 1.82955204,0.194384314 5.21410875,0.194384314 L5.99817272,0.194384314 C9.35523303,0.194384314 11.0333466,1.8516915 11.0333466,5.16714248 L11.0333466,10.2645542 L8.59824885,10.2645542 L8.59824885,5.08431895 C8.59824885,3.37179608 7.70378267,2.51511634 5.91610014,2.51511634 L5.29659795,2.51511634 C3.50766558,2.51511634 2.61403263,3.37179608 2.61403263,5.08431895 L2.61403263,8.77247582 C2.61403263,9.57393987 2.75151462,10.1955346 3.02689522,10.6372601 C3.30144259,11.0798222 3.71430519,11.5215477 4.26464977,11.9632732 L8.51617626,15.1126588 C9.47855022,15.8312993 10.1530452,16.5771294 10.5384114,17.3505673" id="Fill-17" fill="#323232" mask="url(#mask-8)"></path>
                    </g>
                    <path d="M6.11253275,25.6744993 L6.11253275,27.2887216 C6.11253275,27.3075451 6.10503373,27.3242771 6.10170083,27.3422641 L7.55651029,27.3422641 C8.46097516,27.3422641 9.13463693,27.1134536 9.5812451,26.660434 L9.5812451,25.6744993 L6.11253275,25.6744993 Z" id="Fill-20" fill="#EB2026"></path>
                    <path d="M8.88233664,2.74681307 C8.79609793,2.91287843 8.62820326,3.03000261 8.42906267,3.03000261 L4.66747201,3.03000261 C4.45458323,3.03000261 4.27210713,2.90032941 4.19336744,2.71585882 C3.42930085,2.99946667 2.97186076,3.58634248 2.82646314,4.48108758 L10.1800833,4.48108758 C10.0388518,3.61520523 9.60265896,3.04046013 8.88233664,2.74681307" id="Fill-22" fill="#EB2026"></path>
                    <path d="M5.50632048,27.0711634 L5.48757293,27.0711634 L5.48757293,26.4625359 L5.50632048,26.4625359 L5.50632048,25.6744575 L2.89666228,25.6744575 C3.19120703,26.7804444 4.03609637,27.3422222 5.45007784,27.3422222 L5.51673578,27.3422222 C5.5138195,27.3242353 5.50632048,27.3075033 5.50632048,27.289098 L5.50632048,27.0711634 Z" id="Fill-24" fill="#EB2026"></path>
                    <path d="M11.386092,25.6744993 L11.0844649,25.6744993 L11.0844649,27.7689307 L2.01190316,27.7689307 L2.01190316,25.6744993 L1.62028778,25.6744993 L1.62028778,4.48129673 L2.01190316,4.48129673 L2.01190316,2.1563817 L4.29535408,2.1563817 C4.38950842,2.05724444 4.52032462,1.99408105 4.66738869,1.99408105 L8.42897935,1.99408105 C8.57604342,1.99408105 8.70727623,2.05724444 8.80101396,2.1563817 L11.0844649,2.1563817 L11.0844649,4.48129673 L11.386092,4.48129673 L11.386092,25.6744993 Z M7.63866619,0.194551634 L5.36771363,0.194551634 C1.98773966,0.194551634 0.297960975,1.87737516 0.297960975,5.24302222 L0.297960975,24.569349 C0.297960975,27.9634405 1.98773966,29.6596497 5.36771363,29.6596497 L7.63866619,29.6596497 C11.0186402,29.6596497 12.7084189,27.9634405 12.7084189,24.569349 L12.7084189,5.24302222 C12.7084189,1.87737516 11.0186402,0.194551634 7.63866619,0.194551634 L7.63866619,0.194551634 Z" id="Fill-26" fill="#EB2026"></path>
                    <path d="M8.88233664,2.74681307 C9.60265896,3.04046013 10.0388518,3.61520523 10.1800833,4.48108758 L11.0845482,4.48108758 L11.0845482,2.15659085 L8.80109728,2.15659085 C8.88941904,2.2498719 8.94524507,2.37368889 8.94524507,2.5117281 C8.94524507,2.59831634 8.9189985,2.67528366 8.88233664,2.74681307" id="Fill-28" fill="#EB2026"></path>
                    <path d="M10.187499,25.8195242 L10.187499,26.4624523 L10.187499,27.0710797 L10.187499,27.2890144 C10.187499,27.4571712 10.0516835,27.5935373 9.88420542,27.5935373 C9.71672735,27.5935373 9.58091181,27.4571712 9.58091181,27.2890144 L9.58091181,26.6607268 C9.13472025,27.1137464 8.46105848,27.3425569 7.55659361,27.3425569 L6.10178415,27.3425569 C6.0759542,27.4839425 5.95805298,27.5935373 5.80932246,27.5935373 C5.66100855,27.5935373 5.54310733,27.4839425 5.51686076,27.3425569 L5.45020283,27.3425569 C4.03622136,27.3425569 3.19133202,26.7803608 2.89678726,25.6743739 L2.01190316,25.6743739 L2.01190316,27.7688052 L11.0844649,27.7688052 L11.0844649,25.6743739 L10.187499,25.6743739 L10.187499,25.8195242 Z" id="Fill-30" fill="#EB2026"></path>
                    <path d="M4.1934091,2.71577516 C4.16674593,2.65303007 4.15133128,2.58442876 4.15133128,2.51206275 C4.15133128,2.37402353 4.2071573,2.24978824 4.29547907,2.15650719 L2.01202814,2.15650719 L2.01202814,4.48142222 L2.8265048,4.48142222 C2.97190242,3.58625882 3.42934251,2.99938301 4.1934091,2.71577516" id="Fill-32" fill="#EB2026"></path>
                    <path d="M4.88790148,20.5928157 C4.90748224,20.426332 4.78833118,20.2744889 4.62210295,20.2548288 C4.45545811,20.2355869 4.30506115,20.3552209 4.28548038,20.5217046 C4.2275713,21.0165542 4.27048234,21.5080575 4.41254707,21.9840837 C4.45212522,22.1158484 4.57294273,22.2011817 4.7029257,22.2011817 C4.73208855,22.2011817 4.7612514,22.1965804 4.79041424,22.1877961 C4.9508099,22.1396915 5.04163134,21.9698614 4.99330434,21.8088157 C4.8749865,21.4135216 4.83957447,21.0044235 4.88790148,20.5928157" id="Fill-34" fill="#EB2026"></path>
                    <path d="M4.6100212,19.3926275 C4.53794731,19.5440523 4.60168896,19.7260131 4.75291915,19.7983791 C4.79541359,19.8188758 4.83999108,19.8284967 4.88373535,19.8284967 C4.99663723,19.8284967 5.10537299,19.7644967 5.1574495,19.654902 C5.30284713,19.3491242 5.49907143,19.0713725 5.73987322,18.8295948 C6.73640937,17.8290196 8.31203633,17.6675556 9.48646585,18.4460131 C9.6260309,18.5384575 9.81392296,18.4999739 9.90599423,18.3594248 C9.99848212,18.2192941 9.96015381,18.0306405 9.82017214,17.9377778 C8.40702389,17.0007843 6.51060561,17.1948758 5.31117937,18.3991634 C5.02121735,18.6898824 4.7854149,19.0241046 4.6100212,19.3926275" id="Fill-36" fill="#EB2026"></path>
                    <path d="M4.87344504,17.9596549 C5.32213627,17.5087268 5.85081702,17.173668 6.44448927,16.9632627 C6.60238525,16.9072105 6.68529106,16.7331974 6.62988165,16.5746614 C6.57405563,16.4165438 6.40116161,16.3328837 6.24284901,16.3889359 C5.56293806,16.6298771 4.95801729,17.0130405 4.44433457,17.5288052 C2.73164222,19.2484392 2.55999804,21.9908183 4.04522018,23.9074719 C4.10521232,23.9844392 4.19436731,24.0250144 4.28477214,24.0250144 C4.34976362,24.0250144 4.41517172,24.003681 4.47058113,23.9610144 C4.60306378,23.8576941 4.62681067,23.6665307 4.52390748,23.5335111 C3.22616079,21.8586353 3.37655776,19.4626092 4.87344504,17.9596549" id="Fill-38" fill="#EB2026"></path>
                    <path d="M7.42848539,16.1320157 C7.26184055,16.1466562 7.13810676,16.293898 7.15268818,16.4616366 C7.16685299,16.6289569 7.31391706,16.7527739 7.4805619,16.7385516 C8.46376646,16.6532183 9.43322282,16.9163294 10.2356177,17.4747608 L10.2356177,16.7552837 C9.38989516,16.2683817 8.41502285,16.0458458 7.42848539,16.1320157" id="Fill-40" fill="#EB2026"></path>
                    <path d="M10.3893059,17.5813856 C10.4442987,17.623634 10.5088736,17.6432941 10.5726153,17.6432941 C10.6642699,17.6432941 10.7546747,17.6018824 10.8146669,17.5232418 C10.9159036,17.3893856 10.8900737,17.1986405 10.7567578,17.0965752 C10.5905296,16.9694118 10.4151359,16.8585621 10.2355761,16.7552418 L10.2355761,17.474719 C10.2868194,17.5102745 10.3393125,17.542902 10.3893059,17.5813856" id="Fill-42" fill="#EB2026"></path>
                    <path d="M8.62724505,21.1251033 C8.62724505,21.217966 8.55225487,21.2932601 8.45976698,21.2932601 L7.23409418,21.2932601 C7.1416063,21.2932601 7.06619951,21.217966 7.06619951,21.1251033 L7.06619951,21.0129987 C7.06619951,20.796319 7.15577111,20.5838222 7.31158403,20.4294693 C7.45864811,20.284319 7.64862322,20.2048418 7.84776381,20.2048418 L7.86026217,20.2048418 C8.28312345,20.2119529 8.62724505,20.5637438 8.62724505,20.9887373 L8.62724505,21.1251033 Z M7.87067747,19.5962144 C7.50405883,19.5899399 7.15368805,19.7317438 6.88663969,19.9956915 C6.61542521,20.2629856 6.4600289,20.6340183 6.4600289,21.0129987 L6.4600289,21.1251033 C6.4600289,21.5534431 6.80706678,21.9023059 7.23409418,21.9023059 L8.45976698,21.9023059 C8.88637778,21.9023059 9.23383227,21.5534431 9.23383227,21.1251033 L9.23383227,20.9887373 C9.23383227,20.2332863 8.6222457,19.6087634 7.87067747,19.5962144 L7.87067747,19.5962144 Z" id="Fill-44" fill="#EB2026"></path>
                    <path d="M8.54058973,23.1867817 L7.15327144,23.1867817 C6.98579337,23.1867817 6.84997783,23.3231477 6.84997783,23.4913046 C6.84997783,23.6594614 6.98579337,23.7958275 7.15327144,23.7958275 L8.54058973,23.7958275 C8.7080678,23.7958275 8.84388334,23.6594614 8.84388334,23.4913046 C8.84388334,23.3231477 8.7080678,23.1867817 8.54058973,23.1867817" id="Fill-46" fill="#EB2026"></path>
                    <path d="M8.54058973,24.1009778 L7.15327144,24.1009778 C6.98579337,24.1009778 6.84997783,24.2373438 6.84997783,24.4055007 C6.84997783,24.5736575 6.98579337,24.7096052 7.15327144,24.7096052 L8.54058973,24.7096052 C8.7080678,24.7096052 8.84388334,24.5736575 8.84388334,24.4055007 C8.84388334,24.2373438 8.7080678,24.1009778 8.54058973,24.1009778" id="Fill-48" fill="#EB2026"></path>
                    <path d="M9.58112012,25.6744993 L9.58112012,26.660434 C9.83233721,26.4056889 10.0035648,26.0723033 10.1098009,25.6744993 L9.58112012,25.6744993 Z" id="Fill-50" fill="#EB2026"></path>
                    <path d="M6.11253275,25.6744993 L5.50636214,25.6744993 L5.50636214,26.4625778 L5.48761459,26.4625778 L5.48761459,27.0712052 L5.50636214,27.0712052 L5.50636214,27.2887216 C5.50636214,27.3075451 5.51386116,27.3242771 5.51677744,27.3422641 L6.10170083,27.3422641 C6.10503373,27.3242771 6.11253275,27.3075451 6.11253275,27.2887216 L6.11253275,25.6744993 Z" id="Fill-52" fill="#EB2026"></path>
                    <path d="M9.58112012,26.6606013 L9.58112012,27.2888889 C9.58112012,27.4570458 9.71693566,27.5934118 9.88441373,27.5934118 C10.0514752,27.5934118 10.1877073,27.4570458 10.1877073,27.2888889 L10.1877073,27.0709542 L10.1877073,26.4623268 L10.1877073,25.8193987 L10.1877073,25.6746667 L10.1098009,25.6746667 C10.0035648,26.0724706 9.83233721,26.4058562 9.58112012,26.6606013" id="Fill-54" fill="#EB2026"></path>
                    <path d="M5.80940578,27.6250458 C5.95771969,27.6250458 6.07603753,27.5017516 6.10186748,27.3422222 L5.51694409,27.3422222 C5.54277404,27.5017516 5.66109187,27.6250458 5.80940578,27.6250458" id="Fill-56" fill="#EB2026"></path>
                    <path d="M10.187499,24.2941908 L10.187499,23.9047529 L10.187499,23.7959948 L10.187499,22.8167529 L10.187499,22.3754458 L10.187499,20.9887791 C10.187499,19.6924654 9.13721992,18.6383477 7.84697225,18.6383477 C6.55630796,18.6383477 5.50644546,19.6924654 5.50644546,20.9887791 L5.50644546,25.674583 L6.11261607,25.674583 L6.11261607,20.9887791 C6.11261607,20.0283608 6.89043086,19.2473935 7.84697225,19.2473935 C8.80309702,19.2473935 9.58091181,20.0283608 9.58091181,20.9887791 L9.58091181,22.3754458 L9.58091181,22.8167529 L9.58091181,23.9047529 L9.58091181,24.2941908 L9.58091181,25.674583 L10.1095926,25.674583 C10.1383388,25.5658248 10.1695847,25.4595765 10.187499,25.3403608 L10.187499,25.2106876 L10.187499,24.2941908 Z" id="Fill-58" fill="#EB2026"></path>
                    <path d="M10.1973468,25.7162771 L10.1973468,25.3402771 C10.177168,25.4743948 10.1419725,25.5939242 10.1095926,25.7162771 L10.1973468,25.7162771 Z" id="Fill-60" fill="#EB2026"></path>
                    <path d="M9.48875721,10.7308758 L9.16671606,10.7308758 L8.31391109,11.586719 C8.21392418,11.6871111 8.21392418,11.8502484 8.31391109,11.9506405 C8.41389799,12.0510327 8.57637671,12.0510327 8.67636362,11.9506405 L9.97161064,10.6501438 C10.0715975,10.5493333 10.0715975,10.3870327 9.97161064,10.2866405 L8.67636362,8.98572549 C8.57637671,8.88533333 8.41389799,8.88533333 8.31391109,8.98572549 C8.21392418,9.08611765 8.21392418,9.2488366 8.31391109,9.34922876 L9.16671606,10.2054902 L9.48875721,10.2054902 L9.48875721,10.7308758 Z" id="Fill-62" fill="#EB2026"></path>
                    <path d="M3.03472753,10.6499765 L4.32997455,11.9504732 C4.43037807,12.0512837 4.59244017,12.0512837 4.69242708,11.9504732 C4.79241398,11.850081 4.79241398,11.6869438 4.69242708,11.5865516 L3.84003872,10.7307085 L3.54007801,10.7307085 L3.54007801,10.2057412 L3.84003872,10.2057412 L4.69242708,9.34947974 C4.79241398,9.24866928 4.79241398,9.08636863 4.69242708,8.98555817 C4.59244017,8.88516601 4.43037807,8.88516601 4.32997455,8.98555817 L3.03472753,10.2864732 C2.93474062,10.3868654 2.93474062,10.5495843 3.03472753,10.6499765" id="Fill-64" fill="#EB2026"></path>
                    <polygon id="Fill-66" fill="#EB2026" points="3.84008038 10.7308758 9.16646609 10.7308758 9.42809849 10.468183 9.16646609 10.2054902 3.84008038 10.2054902 3.57844798 10.468183"></polygon>
                    <polygon id="Fill-68" fill="#EB2026" points="9.16650775 10.7308758 9.52925636 10.7308758 9.52925636 10.2054902 9.16650775 10.2054902 9.46121166 10.468183"></polygon>
                    <polygon id="Fill-70" fill="#EB2026" points="3.54003634 10.7308758 3.87791344 10.7308758 3.58320953 10.468183 3.87791344 10.2054902 3.54003634 10.2054902"></polygon>
                </g>
            </g>
        </g>
    </g>
</svg>