<?xml version="1.0" encoding="UTF-8"?>
<svg width="19px" height="15px" viewBox="0 0 19 15" version="1.1" xmlns="http://www.w3.org/2000/svg" xmlns:xlink="http://www.w3.org/1999/xlink">
    <!-- Generator: Sketch 51.3 (57544) - http://www.bohemiancoding.com/sketch -->
    <title>Shape</title>
    <desc>Created with Sketch.</desc>
    <defs></defs>
    <g id="mobi-chuyen-muc-music" stroke="none" stroke-width="1" fill="none" fill-rule="evenodd">
        <g id="mobi-chuyen-muc-T9" transform="translate(-10.000000, -1325.000000)" fill="#2C3642">
            <g id="MV-moi" transform="translate(10.000000, 1322.000000)">
                <path d="M15,3 L16.875,6.75 L14.0625,6.75 L12.1875,3 L10.3125,3 L12.1875,6.75 L9.375,6.75 L7.5,3 L5.625,3 L7.5,6.75 L4.6875,6.75 L2.8125,3 L1.875,3 C0.84375,3 0,3.84375 0,4.875 L0,16.125 C0,17.15625 0.84375,18 1.875,18 L16.875,18 C17.90625,18 18.75,17.15625 18.75,16.125 L18.75,3 L15,3 L15,3 Z" id="Shape"></path>
            </g>
        </g>
    </g>
</svg>