<?xml version="1.0" encoding="UTF-8"?>
<svg width="18px" height="18px" viewBox="0 0 18 18" version="1.1" xmlns="http://www.w3.org/2000/svg" xmlns:xlink="http://www.w3.org/1999/xlink">
    <!-- Generator: Sketch 51.3 (57544) - http://www.bohemiancoding.com/sketch -->
    <title>Shape</title>
    <desc>Created with Sketch.</desc>
    <defs></defs>
    <g id="mobi-chuyen-muc-music" stroke="none" stroke-width="1" fill="none" fill-rule="evenodd">
        <g id="mobi-chuyen-muc-T9" transform="translate(-228.000000, -1322.000000)" fill="#2C3642">
            <g id="Goc-nhin" transform="translate(228.000000, 1322.000000)">
                <path d="M6.66,7.65 L10.98,0.18 C10.35,0.09 9.63,0 9,0 C6.84,0 4.86,0.72 3.33,2.07 L6.66,7.74 L6.66,7.65 L6.66,7.65 Z M17.55,6.3 C16.74,3.69 14.76,1.53 12.15,0.63 L8.91,6.3 L17.55,6.3 L17.55,6.3 Z M17.82,7.2 L11.07,7.2 L11.34,7.65 L15.66,15.12 C17.1,13.5 18,11.34 18,9 C18,8.37 17.91,7.74 17.82,7.2 L17.82,7.2 Z M5.85,9 L2.34,2.88 C0.9,4.5 0,6.66 0,9 C0,9.63 0.09,10.26 0.18,10.8 L6.93,10.8 L5.85,9 L5.85,9 Z M0.45,11.7 C1.26,14.31 3.24,16.47 5.85,17.37 L9.18,11.7 L0.45,11.7 L0.45,11.7 Z M10.53,11.7 L7.02,17.82 C7.65,18 8.28,18 9,18 C11.16,18 13.14,17.28 14.67,15.93 L11.34,10.26 L10.53,11.7 L10.53,11.7 Z" id="Shape"></path>
            </g>
        </g>
    </g>
</svg>