<?xml version="1.0" encoding="utf-8"?>
<!-- Generator: Adobe Illustrator 21.0.0, SVG Export Plug-In . SVG Version: 6.00 Build 0)  -->
<svg version="1.1" id="Layer_1" xmlns="http://www.w3.org/2000/svg" xmlns:xlink="http://www.w3.org/1999/xlink" x="0px" y="0px"
	 viewBox="0 0 30 30" style="enable-background:new 0 0 30 30;" xml:space="preserve">
<style type="text/css">
	.st0{fill:#ED1C24;}
	.st1{fill:#FFFFFF;}
</style>
<path class="st0" d="M30,15c0,4.6-2.1,8.7-5.3,11.5c-0.4,0.3-0.8,0.7-1.3,1l0,0c-1,0.7-2.1,1.3-3.3,1.7c-0.2,0.1-0.5,0.2-0.7,0.2
	C17.9,29.8,16.5,30,15,30c-2,0-3.9-0.4-5.6-1.1c-0.4-0.2-0.9-0.4-1.3-0.6C7.4,28,6.7,27.5,6,27c-0.2-0.2-0.5-0.4-0.7-0.6
	C2.1,23.7,0,19.6,0,15C0,6.7,6.7,0,15,0S30,6.7,30,15z"/>
<g>
	<path class="st1" d="M9.4,28.9C11.1,29.6,13,30,15,30c1.5,0,2.9-0.2,4.3-0.6c0.2-0.1,0.5-0.2,0.7-0.2c1.2-0.4,2.3-1,3.3-1.7l0,0
		c0.5-0.3,0.9-0.6,1.3-1V11.9c0-0.8-0.7-1.5-1.5-1.5H6.8c-0.8,0-1.5,0.7-1.5,1.5v14.6C5.6,26.6,5.8,26.8,6,27
		c0.7,0.5,1.3,0.9,2.1,1.3L9.4,28.9z"/>
	<g>
		<g>
			<path d="M21.6,19.7H8.4C8.2,19.7,8,19.8,8,20c0,0.2,0.2,0.4,0.4,0.4h13.2c0.2,0,0.4-0.2,0.4-0.4C22,19.8,21.8,19.7,21.6,19.7z"/>
		</g>
	</g>
	<g>
		<g>
			<path d="M14.2,26.6H8.4C8.2,26.6,8,26.8,8,27c0,0.2,0.2,0.4,0.4,0.4h5.8c0.2,0,0.4-0.2,0.4-0.4C14.6,26.8,14.4,26.6,14.2,26.6z"
				/>
		</g>
	</g>
	<g>
		<g>
			<path d="M21.6,22h-5.8c-0.2,0-0.4,0.2-0.4,0.4c0,0.2,0.2,0.4,0.4,0.4h5.8c0.2,0,0.4-0.2,0.4-0.4C22,22.1,21.8,22,21.6,22z"/>
		</g>
	</g>
	<g>
		<g>
			<path d="M9.4,28.9h4.8c0.2,0,0.4-0.2,0.4-0.4c0-0.2-0.2-0.4-0.4-0.4H8.4c-0.1,0-0.2,0-0.3,0.1L9.4,28.9z"/>
		</g>
	</g>
	<g>
		<g>
			<path d="M21.6,23.5h-5.8c-0.2,0-0.4,0.2-0.4,0.4c0,0.2,0.2,0.4,0.4,0.4h5.8c0.2,0,0.4-0.2,0.4-0.4C22,23.7,21.8,23.5,21.6,23.5z"
				/>
		</g>
	</g>
	<g>
		<g>
			<path d="M21.6,25.1h-5.8c-0.2,0-0.4,0.2-0.4,0.4c0,0.2,0.2,0.4,0.4,0.4h5.8c0.2,0,0.4-0.2,0.4-0.4C22,25.3,21.8,25.1,21.6,25.1z"
				/>
		</g>
	</g>
	<g>
		<g>
			<path d="M18.1,26.6h-2.3c-0.2,0-0.4,0.2-0.4,0.4c0,0.2,0.2,0.4,0.4,0.4h2.3c0.2,0,0.4-0.2,0.4-0.4C18.5,26.8,18.3,26.6,18.1,26.6
				z"/>
		</g>
	</g>
	<g>
		<g>
			<path d="M18.1,28.2h-2.3c-0.2,0-0.4,0.2-0.4,0.4s0.2,0.4,0.4,0.4h2.3c0.2,0,0.4-0.2,0.4-0.4C18.5,28.4,18.3,28.2,18.1,28.2z"/>
		</g>
	</g>
	<g>
		<g>
			<path d="M23.2,10.3H6.8c-0.8,0-1.5,0.7-1.5,1.5v14.6C5.5,26.6,5.8,26.8,6,27V12.6h15.6c0.2,0,0.4-0.2,0.4-0.4s-0.2-0.4-0.4-0.4H6
				v0c0-0.4,0.4-0.8,0.8-0.8h16.3c0.4,0,0.8,0.4,0.8,0.8v0h-0.8c-0.2,0-0.4,0.2-0.4,0.4s0.2,0.4,0.4,0.4H24v14h-3.5
				c-0.7,0-1.2,0.5-1.2,1.2v1.5c0.2-0.1,0.5-0.2,0.7-0.2v-1.3c0-0.3,0.2-0.5,0.5-0.5h2.9l-0.1,0.1c0.5-0.3,0.9-0.6,1.3-1V11.9
				C24.7,11,24,10.3,23.2,10.3z"/>
		</g>
	</g>
	<g>
		<g>
			<path d="M14.2,22H8.4C8.2,22,8,22.1,8,22.3v3.1c0,0.2,0.2,0.4,0.4,0.4h5.8c0.2,0,0.4-0.2,0.4-0.4v-3.1C14.6,22.1,14.4,22,14.2,22
				z M13.9,25.1H8.8v-2.4h5.1V25.1z"/>
		</g>
	</g>
	<g>
		<path d="M12.2,14.2C12.1,14.1,12,14,11.9,14c-0.1,0-0.2,0-0.3,0.1c-0.1,0.1-0.1,0.2-0.1,0.3v1.2H9.7v-1.2c0-0.1,0-0.2-0.1-0.3
			C9.5,14.1,9.4,14,9.3,14c-0.1,0-0.2,0-0.3,0.1c-0.1,0.1-0.1,0.2-0.1,0.3v3.3c0,0.1,0,0.2,0.1,0.3c0.1,0.1,0.2,0.1,0.3,0.1
			c0.1,0,0.2,0,0.3-0.1c0.1-0.1,0.1-0.2,0.1-0.3v-1.2h1.7v1.2c0,0.1,0,0.2,0.1,0.3c0.1,0.1,0.2,0.1,0.3,0.1c0.1,0,0.2,0,0.3-0.1
			c0.1-0.1,0.1-0.2,0.1-0.3v-3.3C12.3,14.4,12.3,14.3,12.2,14.2z"/>
		<path d="M16.8,14.6c-0.4-0.4-0.9-0.6-1.6-0.6c-0.6,0-1.2,0.2-1.6,0.6C13.2,15,13,15.5,13,16.1v0c0,0.6,0.2,1.1,0.6,1.5
			c0.4,0.4,0.9,0.6,1.6,0.6c0.6,0,1.2-0.2,1.6-0.6c0.4-0.4,0.6-0.9,0.6-1.5v0C17.4,15.5,17.2,15,16.8,14.6z M16.4,16.2
			c0,0.4-0.1,0.7-0.3,0.9c-0.2,0.3-0.5,0.4-0.9,0.4s-0.7-0.1-0.9-0.4c-0.2-0.2-0.4-0.6-0.4-0.9v0c0-0.4,0.1-0.7,0.4-0.9
			c0.2-0.3,0.5-0.4,0.9-0.4c0.4,0,0.7,0.1,0.9,0.4C16.3,15.5,16.4,15.8,16.4,16.2L16.4,16.2z"/>
		<path d="M21,14.2c-0.1-0.1-0.2-0.1-0.3-0.1h-2.7c-0.1,0-0.2,0-0.3,0.1c-0.1,0.1-0.1,0.2-0.1,0.3s0,0.2,0.1,0.3
			c0.1,0.1,0.2,0.1,0.3,0.1H19v2.9c0,0.1,0,0.2,0.1,0.3c0.1,0.1,0.2,0.1,0.3,0.1c0.1,0,0.2,0,0.3-0.1c0.1-0.1,0.1-0.2,0.1-0.3v-2.9
			h0.9c0.1,0,0.2,0,0.3-0.1c0.1-0.1,0.1-0.2,0.1-0.3S21.1,14.3,21,14.2z"/>
	</g>
</g>
</svg>
