<?xml version="1.0" encoding="utf-8"?>
<!-- Generator: Adobe Illustrator 21.0.0, SVG Export Plug-In . SVG Version: 6.00 Build 0)  -->
<svg version="1.1" id="Layer_1" xmlns="http://www.w3.org/2000/svg" xmlns:xlink="http://www.w3.org/1999/xlink" x="0px" y="0px"
	 viewBox="0 0 120 30" style="enable-background:new 0 0 120 30;" xml:space="preserve">
<style type="text/css">
	.st0{fill:#FFFFFF;}
</style>
<g id="XMLID_55_">
	<g id="XMLID_92_">
		<path id="XMLID_99_" class="st0" d="M42.9,16h-5.5c0-0.6-0.2-0.9-0.6-1.2c-0.4-0.2-0.9-0.3-1.5-0.3c-1.2,0-1.9,0.3-2,1
			c-0.1,0.7,0.6,1.2,2.1,1.6c2.5,0.7,3.9,1.1,4.4,1.4c1.6,0.8,2.4,2,2.4,3.5c0,0.3,0,0.6-0.1,0.9c-0.3,2-1.4,3.5-3.1,4.6
			c-1.6,1-3.7,1.5-6.2,1.5c-2.1,0-3.8-0.5-5.1-1.5c-1.2-1-1.8-2.2-1.8-3.7c0-0.2,0-0.5,0-0.7h5.5c0,0.6,0.2,1.1,0.7,1.4
			c0.4,0.3,1,0.5,1.6,0.5c1.6,0,2.5-0.4,2.6-1.3c0.1-0.7-0.6-1.2-2.1-1.6c-2.4-0.7-3.9-1.1-4.4-1.4c-1.6-0.8-2.4-2-2.4-3.6
			c0-0.3,0-0.6,0.1-1c0.3-1.8,1.3-3.2,2.9-4.2c1.5-0.9,3.4-1.4,5.7-1.4c2.3,0,4.1,0.5,5.2,1.6C42.5,13,43,14.3,42.9,16z"/>
		<path id="XMLID_96_" class="st0" d="M46.1,28.5h-5.7l9.5-17.7h5.9L59,28.5h-5.8L53,26.2h-5.8L46.1,28.5z M52.6,22.5l-0.7-6.3
			l-2.9,6.3H52.6z"/>
		<path id="XMLID_93_" class="st0" d="M69.8,10.4c2.6,0,4.6,0.7,6,2.2c1.2,1.3,1.9,3,1.9,5.2c0,0.6-0.1,1.2-0.2,1.9
			c-0.5,2.9-1.8,5.2-3.9,6.9c-2,1.6-4.3,2.5-7,2.5c-2.4,0-4.4-0.6-5.7-1.9c-1.4-1.3-2.1-3-2.1-5.3c0-0.7,0.1-1.4,0.2-2.2
			c0.5-2.8,1.7-5,3.7-6.7C64.7,11.2,67.1,10.4,69.8,10.4z M69,14.7c-1.2,0-2.2,0.6-3,1.6c-0.6,0.9-1.1,2-1.3,3.3
			c-0.1,0.6-0.1,1.1-0.1,1.7c0,2.3,0.9,3.4,2.7,3.4c2.3,0,3.8-1.7,4.4-5.1c0.1-0.5,0.1-1,0.1-1.4C71.8,15.8,70.9,14.7,69,14.7z"/>
	</g>
	<g id="XMLID_82_">
		<path id="XMLID_90_" class="st0" d="M88.1,18.8c0-2-1.2-3-3-3c-1.2,0-2.8,0.5-2.8,2c0,1.1,1.2,1.6,2,2l2.7,1.2
			c1.3,0.5,2.4,1.7,2.4,3.2c0,3.3-2.7,4.6-5.5,4.6c-3.6,0-5.6-1.6-5.6-5.3h2.3c0,2.4,0.8,3.4,3.6,3.4c1.5,0,3-0.7,3-2.1
			c0-1-0.6-1.5-1.5-1.9l-2.5-1.1c-1.7-0.8-3.1-1.6-3.1-3.8c0-1.4,1.3-4.1,4.9-4.1c3.4,0,5.4,1.6,5.4,4.9H88.1z"/>
		<path id="XMLID_88_" class="st0" d="M92.4,16.3h-1.9l0.4-1.9h1.9l0.9-3.8H96l-0.8,3.8h2.6l-0.3,1.9h-2.7L93,24.4
			c-0.1,0.8-0.2,1.1-0.2,1.4c0,0.6,0.4,0.8,1.1,0.8c0.5,0,1-0.1,1.5-0.1l-0.4,1.9c-0.4,0.1-0.9,0.2-1.6,0.2c-1.8,0-2.9-0.7-2.9-2.3
			c0-0.2,0-0.6,0.1-0.9L92.4,16.3z"/>
		<path id="XMLID_85_" class="st0" d="M106.7,24.7c-0.1,0.6-0.2,1-0.2,1.3c0,0.5,0.3,0.9,1,0.9c0.2,0,0.4,0,0.6-0.1l-0.3,1.7
			c-0.4,0.1-0.9,0.1-1.3,0.1c-1.7,0-2-1.1-2.1-1.8h-0.1c-0.2,0.5-1.6,2-4.3,2c-3.2,0-4.4-2.3-4.4-4.1c0-3.1,2.2-4.5,4.8-4.7l3.3-0.2
			c1.9-0.1,2.3-0.9,2.3-2c0-1.5-1.1-2-3-2c-2,0-3.2,0.8-3.4,2.6h-2.3c0.5-3.2,3.1-4.5,6-4.5c2.3,0,5.1,0.6,5.1,3.4
			c0,0.7-0.2,1.4-0.5,2.7L106.7,24.7z M105.1,21.3c-0.7,0.3-2.2,0.4-4.1,0.6c-2,0.2-3.2,1.2-3.2,2.7c0,1.6,1.1,2.3,2.5,2.3
			C103.3,26.9,104.6,24.6,105.1,21.3z"/>
		<path id="XMLID_83_" class="st0" d="M111.6,14.3h2.2l-0.6,2.8c0,0,0.9-1.2,1.1-1.5c0.6-0.6,1.7-1.6,3.2-1.6l0.7,0.1l-0.5,2.6
			c-0.2,0-0.5-0.1-0.8-0.1c-2.7,0-4.2,3-4.5,4.6l-1.5,7.1h-2.3L111.6,14.3z"/>
	</g>
	<g id="XMLID_64_">
		<polygon id="XMLID_81_" class="st0" points="4.1,10 9,13.2 9.1,13.2 9.1,13.2 16.2,13.2 16.2,12.7 16.2,12.7 16.2,12.4 20.3,14.8 
			16.2,17.1 16.2,16.8 16.2,16.8 16.2,16.4 16.2,16.4 16.2,16.3 13.3,16.3 13.3,16.4 7.2,16.4 7.2,16.8 13,16.8 7.8,27 17.9,19 
			23.8,23 22.8,15.2 29.4,10 22.2,10 21.1,1 16.5,10 		"/>
		<rect id="XMLID_80_" x="11.4" y="15.4" class="st0" width="4.8" height="0.4"/>
		<rect id="XMLID_79_" x="3.6" y="12.7" class="st0" width="0.6" height="0.4"/>
		<rect id="XMLID_78_" x="6" y="12.7" class="st0" width="0.6" height="0.4"/>
		<rect id="XMLID_77_" x="7.3" y="12.7" class="st0" width="0.6" height="0.4"/>
		<rect id="XMLID_76_" x="4.9" y="13.6" class="st0" width="0.9" height="0.4"/>
		<rect id="XMLID_75_" x="6.5" y="13.6" class="st0" width="0.6" height="0.4"/>
		<rect id="XMLID_74_" x="7.8" y="13.6" class="st0" width="8.4" height="0.4"/>
		<rect id="XMLID_73_" x="1.8" y="14.5" class="st0" width="0.6" height="0.4"/>
		<rect id="XMLID_72_" x="3.1" y="14.5" class="st0" width="1.1" height="0.4"/>
		<rect id="XMLID_71_" x="4.9" y="14.5" class="st0" width="11.3" height="0.4"/>
		<rect id="XMLID_70_" x="9.4" y="15.4" class="st0" width="0.6" height="0.4"/>
		<rect id="XMLID_69_" x="8" y="15.4" class="st0" width="0.6" height="0.4"/>
		<rect id="XMLID_68_" x="6.5" y="15.4" class="st0" width="0.6" height="0.4"/>
		<rect id="XMLID_67_" x="5.9" y="16.4" class="st0" width="0.6" height="0.4"/>
		<rect id="XMLID_66_" x="4.1" y="16.4" class="st0" width="0.6" height="0.4"/>
		<rect id="XMLID_65_" x="3" y="16.4" class="st0" width="0.6" height="0.4"/>
	</g>
	<path id="XMLID_63_" class="st0" d="M29.4,10"/>
</g>
</svg>
