<?xml version="1.0" encoding="utf-8"?>
<!-- Generator: Adobe Illustrator 21.0.0, SVG Export Plug-In . SVG Version: 6.00 Build 0)  -->
<svg version="1.1" id="Layer_1" xmlns="http://www.w3.org/2000/svg" xmlns:xlink="http://www.w3.org/1999/xlink" x="0px" y="0px"
	 viewBox="0 0 706 142" style="enable-background:new 0 0 706 142;" xml:space="preserve">
<style type="text/css">
	.st0{fill:url(#XMLID_10_);}
	.st1{fill:url(#XMLID_11_);}
	.st2{fill:url(#XMLID_12_);}
	.st3{fill:url(#XMLID_13_);}
	.st4{fill:url(#XMLID_14_);}
	.st5{fill:url(#XMLID_15_);}
	.st6{fill:url(#XMLID_16_);}
</style>
<g id="XMLID_1_">
	<linearGradient id="XMLID_10_" gradientUnits="userSpaceOnUse" x1="542.334" y1="170.28" x2="542.334" y2="9.3266">
		<stop  offset="0" style="stop-color:#AF7F2C"/>
		<stop  offset="1" style="stop-color:#E6BC35"/>
	</linearGradient>
	<path id="XMLID_8_" class="st0" d="M602.1,128.6L567.5,8.8c-0.2-0.4-0.5-0.9-1-1.3c-0.5-0.4-1.1-0.6-1.7-0.6h-1.7
		c-1.3,0-2.5,0.6-3.4,1.9L483,128.5c-0.6,1-0.8,2.1-0.3,3.1s1.3,1.5,2.5,1.5h19.5c1.5,0,3-0.4,4.3-1.2c1.2-0.8,2.2-1.8,2.9-3
		l8.9-14.2h48.4l3.9,14c0.4,1.5,1.1,2.7,1.9,3.4c0.8,0.7,2,1,3.6,1h19.7c1.2,0,2.2-0.5,3-1.5C602,130.6,602.3,129.6,602.1,128.6z
		 M560.4,83.8l2.8,19l-14.1-11.7l-18.2,11.7l9.5-19l-14-11.7h20l9.5-19l2.8,19h19.9L560.4,83.8z"/>
	<linearGradient id="XMLID_11_" gradientUnits="userSpaceOnUse" x1="61.3671" y1="170.28" x2="61.3671" y2="9.3266">
		<stop  offset="0" style="stop-color:#AF7F2C"/>
		<stop  offset="1" style="stop-color:#E6BC35"/>
	</linearGradient>
	<path id="XMLID_7_" class="st1" d="M51.3,134.9c-8.9,0-16.6-1.3-23.1-4s-11.3-5.9-14.5-9.7c-1.3-1.5-1.2-3.3,0.2-5.3l10.7-14.4
		c0.8-1.1,1.8-1.7,3.1-1.8c1.3-0.1,2.3,0.1,3.2,0.7c4.7,3.7,8.9,6.2,12.5,7.6c3.7,1.4,7.3,2.1,11,2.1c3.6,0,6.7-1,9.3-3
		c2.7-2,4.3-4.6,4.8-7.6c0.5-2.6-0.2-5.3-1.9-8.1c-1.7-2.8-6.1-6.1-13.3-9.9C40.6,74.8,32.5,68.4,29,62.5c-3.4-6-4.5-12.7-3.2-20.1
		c0.8-4.4,2.4-8.7,5-13c2.5-4.3,5.8-8.1,9.8-11.5s8.8-6,14.4-8C60.6,7.9,66.6,7,73.1,7c6,0,12.2,1.1,18.4,3.4s12,5.6,17.3,10
		c0.9,0.5,1.2,1.4,1,2.7c-0.2,1.3-0.5,2.3-1,3L97.4,39.7c-0.8,1-1.9,1.7-3.5,2.1c-1.6,0.5-3.1,0.2-4.6-0.9
		c-8.1-6.4-15.6-9.6-22.3-9.6c-3.4,0-6.3,0.9-8.5,2.8s-3.6,4.2-4.1,6.9c-0.4,2,0.4,4.3,2.3,6.8c1.9,2.5,6.6,5.8,14.2,9.8
		c9.3,5,15.5,8.8,18.4,11.4s5.3,5.3,6.9,8c1.6,2.7,2.8,5.9,3.5,9.4c0.7,3.6,0.6,7.5-0.1,11.7c-0.8,4.5-2.6,9-5.3,13.4
		s-6.3,8.4-10.5,11.9c-4.3,3.5-9.3,6.3-14.9,8.4C63.3,133.9,57.4,134.9,51.3,134.9z"/>
	<linearGradient id="XMLID_12_" gradientUnits="userSpaceOnUse" x1="165.6817" y1="170.28" x2="165.6817" y2="9.3266">
		<stop  offset="0" style="stop-color:#AF7F2C"/>
		<stop  offset="1" style="stop-color:#E6BC35"/>
	</linearGradient>
	<path id="XMLID_6_" class="st2" d="M115.1,129.8l20.8-117.7c0.1-0.8,0.6-1.6,1.4-2.3s1.6-1.1,2.6-1.1h42.8c5.7,0,10.8,1,15.4,3.1
		s8.3,4.9,11.2,8.5c2.9,3.6,4.9,7.8,6,12.6s1.2,9.8,0.3,15c-0.7,4-2.1,8.3-4.2,12.7s-5.3,8.9-9.8,13.5s-9.6,8-15.5,10.3
		s-11.7,3.5-17.2,3.5h-18.7l-7.4,41.8c-0.1,0.8-0.6,1.6-1.5,2.3c-0.8,0.7-1.7,1.1-2.5,1.1h-21c-1,0-1.7-0.4-2.2-1.1
		C115.1,131.3,115,130.6,115.1,129.8z M154.8,62h18c3.8,0,7.1-1.4,10.1-4.1c2.9-2.7,4.7-6,5.4-10c0.6-3.7-0.1-6.8-2.1-9.3
		s-4.9-3.8-8.6-3.8h-18L154.8,62z"/>
	<linearGradient id="XMLID_13_" gradientUnits="userSpaceOnUse" x1="269.6703" y1="170.28" x2="269.6703" y2="9.3266">
		<stop  offset="0" style="stop-color:#AF7F2C"/>
		<stop  offset="1" style="stop-color:#E6BC35"/>
	</linearGradient>
	<path id="XMLID_5_" class="st3" d="M219.1,129.8l20.8-117.7c0.1-0.8,0.6-1.6,1.4-2.3s1.6-1.1,2.6-1.1h73.5c0.9,0,1.7,0.4,2.2,1.1
		s0.7,1.5,0.6,2.3l-3.4,19.4c-0.1,0.8-0.6,1.6-1.4,2.3s-1.6,1.1-2.6,1.1h-49.2l-3.9,22h40.5c0.8,0,1.5,0.4,2.1,1.1
		c0.6,0.7,0.8,1.5,0.7,2.3l-3.4,19.4c-0.2,1-0.7,1.8-1.5,2.4c-0.8,0.7-1.7,1-2.5,1h-40.5l-4.2,24h49.2c0.9,0,1.7,0.4,2.2,1.1
		s0.7,1.5,0.6,2.3l-3.4,19.4c-0.1,0.8-0.6,1.6-1.4,2.3s-1.6,1.1-2.6,1.1h-73.6c-1,0-1.7-0.4-2.2-1.1
		C219.1,131.3,218.9,130.6,219.1,129.8z"/>
	<linearGradient id="XMLID_14_" gradientUnits="userSpaceOnUse" x1="380.8113" y1="170.28" x2="380.8113" y2="9.3266">
		<stop  offset="0" style="stop-color:#AF7F2C"/>
		<stop  offset="1" style="stop-color:#E6BC35"/>
	</linearGradient>
	<path id="XMLID_4_" class="st4" d="M323.1,71.1c1.5-8.7,4.6-16.9,9.3-24.7s10.5-14.7,17.5-20.6s14.7-10.5,23.1-13.9
		c8.4-3.3,16.9-5,25.6-5s16.2,1.4,22.7,4.1s12.3,6.9,17.4,12.4c0.6,0.7,0.8,1.5,0.7,2.5s-0.6,1.8-1.4,2.5l-16.4,14.4
		c-0.7,0.6-1.5,0.9-2.4,0.9s-1.6-0.3-2.1-0.9c-5.8-6-13.3-9.1-22.4-9.1c-3.6,0-7.4,0.7-11.6,2c-4.2,1.3-8.3,3.5-12.3,6.5
		s-7.6,6.9-10.9,11.7s-5.5,10.3-6.5,16.4c-0.8,4.7-0.8,9.1,0,13s2.2,7.4,4.2,10.6c1.9,3.1,5,6,9.1,8.6c4.2,2.6,9.3,3.9,15.3,3.9
		c9.2,0,17.7-2.8,25.3-8.5c0.7-0.5,1.5-0.7,2.5-0.7s1.7,0.3,2.1,0.9l11.3,14.8c0.5,0.6,0.6,1.4,0.4,2.4c-0.2,1-0.7,1.8-1.4,2.4
		c-3.3,2.7-7.4,5.5-12.2,8.3s-10.2,5-16.3,6.6c-6,1.6-11.9,2.4-17.8,2.4c-8.7,0-16.6-1.6-23.8-4.9c-7.2-3.3-13.3-7.8-18.2-13.7
		c-4.9-5.9-8.3-12.7-10.2-20.5C321.8,88,321.6,79.8,323.1,71.1z"/>
	<linearGradient id="XMLID_15_" gradientUnits="userSpaceOnUse" x1="465.0953" y1="170.28" x2="465.0953" y2="9.3266">
		<stop  offset="0" style="stop-color:#AF7F2C"/>
		<stop  offset="1" style="stop-color:#E6BC35"/>
	</linearGradient>
	<path id="XMLID_3_" class="st5" d="M440.6,129.8l20.8-117.6c0.1-0.8,0.6-1.6,1.5-2.3c0.8-0.7,1.7-1.1,2.5-1.1h21.3
		c0.8,0,1.5,0.4,2.1,1.1s0.8,1.5,0.7,2.3l-20.8,117.7c-0.1,0.8-0.6,1.6-1.5,2.3c-0.8,0.7-1.7,1.1-2.5,1.1h-21.3
		c-0.8,0-1.5-0.4-2.1-1.1C440.7,131.3,440.5,130.6,440.6,129.8z"/>
	<linearGradient id="XMLID_16_" gradientUnits="userSpaceOnUse" x1="654.5217" y1="170.28" x2="654.5217" y2="9.3266">
		<stop  offset="0" style="stop-color:#AF7F2C"/>
		<stop  offset="1" style="stop-color:#E6BC35"/>
	</linearGradient>
	<path id="XMLID_2_" class="st6" d="M615.9,129.8l20.8-117.7c0.1-0.8,0.6-1.6,1.4-2.3c0.8-0.7,1.6-1.1,2.6-1.1h21.2
		c0.8,0,1.5,0.4,2.1,1.1s0.8,1.5,0.7,2.3L648,107h42.3c1,0,1.7,0.4,2.2,1.1s0.7,1.5,0.6,2.3l-3.4,19.4c-0.1,0.8-0.6,1.6-1.4,2.3
		c-0.8,0.7-1.6,1.1-2.6,1.1h-66.8c-1,0-1.7-0.4-2.2-1.1C615.9,131.3,615.7,130.6,615.9,129.8z"/>
</g>
</svg>
