<?xml version="1.0" encoding="utf-8"?>
<!-- Generator: Adobe Illustrator 23.0.6, SVG Export Plug-In . SVG Version: 6.00 Build 0)  -->
<svg version="1.1" id="Capa_1" xmlns="http://www.w3.org/2000/svg" xmlns:xlink="http://www.w3.org/1999/xlink" x="0px" y="0px"
	 viewBox="0 0 35 35" style="enable-background:new 0 0 35 35;" xml:space="preserve">
<style type="text/css">
	.st0{fill:#EC1C24;}
</style>
<g>
	<g>
		<circle class="st0" cx="17.5" cy="26.7" r="4"/>
		<path class="st0" d="M27.3,16.7l-0.2-0.2l-0.2-0.2c0,0,0,0-0.2-0.2c-5.2-4.7-13.3-4.6-18.4,0.5l-0.7,0.7l-0.8,0.8
			c-1,1-1,2.7,0,3.7c1,1,2.7,1,3.7,0l1.3-1.3c3.2-3.2,8.4-3.2,11.6,0l1,1c1,1,2.5,1,3.5,0c0.5-0.5,0.7-1.2,0.7-1.9
			c0-0.7-0.3-1.3-0.7-1.9L27.3,16.7z"/>
		<path class="st0" d="M34.4,11.6l-0.8-0.8l0,0l-0.7-0.7c-0.2-0.2-0.2-0.2-0.3-0.3c-8.8-7.6-21.9-7.3-30.2,0.7c0,0-0.2,0-0.2,0.2
			l-1.5,1.5c-0.8,0.8-0.8,2.4,0,3.4c0.8,0.8,2.4,0.8,3.4,0L5.5,14l0,0c6.7-6.6,17.5-6.6,24.3-0.2L31,15c0.8,0.8,2.4,0.8,3.4,0
			C35.2,14,35.2,12.7,34.4,11.6z"/>
	</g>
</g>
</svg>
