<?xml version="1.0" encoding="utf-8"?>
<!-- Generator: Adobe Illustrator 23.0.6, SVG Export Plug-In . SVG Version: 6.00 Build 0)  -->
<svg version="1.1" id="Capa_1" xmlns="http://www.w3.org/2000/svg" xmlns:xlink="http://www.w3.org/1999/xlink" x="0px" y="0px"
	 viewBox="0 0 35 35" style="enable-background:new 0 0 35 35;" xml:space="preserve">
<style type="text/css">
	.st0{fill:#EC1C24;}
</style>
<path class="st0" d="M34.3,15.9c0.7-0.7,0.9-1.7,0.6-2.6c-0.3-0.9-1.1-1.5-2-1.7l-8.5-1.3c-0.4-0.1-0.7-0.3-0.8-0.6l-3.8-7.6
	c-0.4-0.8-1.3-1.4-2.2-1.4c-1,0-1.8,0.6-2.2,1.4l-3.8,7.7c-0.1,0.4-0.5,0.6-0.8,0.6l-8.5,1.2c-1,0.1-1.8,0.8-2,1.7s-0.1,1.9,0.6,2.6
	l6.1,6c0.3,0.3,0.4,0.6,0.4,1l-1.5,8.4c-0.1,0.8,0.1,1.5,0.6,2.1c0.8,0.9,2,1.2,3.1,0.6l7.6-4c0.4-0.1,0.7-0.1,1.1,0l7.6,4
	c0.4,0.2,0.8,0.3,1.2,0.3c0.8,0,1.5-0.4,1.9-0.9c0.5-0.6,0.7-1.3,0.6-2l-1.5-8.4c-0.1-0.4,0.1-0.7,0.4-1L34.3,15.9z"/>
</svg>
